<svg xmlns="http://www.w3.org/2000/svg" xmlns:xlink="http://www.w3.org/1999/xlink" viewBox="0 0 424 408">
<defs>
<style>
.cls-1{fill:url(#linear-gradient);}.cls-2{fill:url(#linear-gradient-2);}.cls-3{fill:url(#linear-gradient-3);}.cls-4{fill:url(#linear-gradient-4);}.cls-5{fill:url(#linear-gradient-5);}.cls-6{fill:url(#linear-gradient-6);}.cls-7{fill:url(#linear-gradient-7);}.cls-8{fill:url(#linear-gradient-8);}.cls-9{fill:url(#linear-gradient-9);}.cls-10{fill:#410a54;}.cls-11{fill:url(#linear-gradient-10);}.cls-12{fill:url(#linear-gradient-11);}
</style>
<linearGradient id="linear-gradient" x1="234.22" y1="56.86" x2="260.46" y2="193.67" gradientTransform="matrix(0.97, 0.26, -0.26, 0.97, 31.27, -67.22)" gradientUnits="userSpaceOnUse"><stop offset="0" stop-color="#9dc44d"/><stop offset="1" stop-color="#5fa69b"/></linearGradient><linearGradient id="linear-gradient-2" x1="258.47" y1="73.71" x2="282.54" y2="199.23" gradientTransform="translate(32.52 -59.6) rotate(8.54)" xlink:href="#linear-gradient"/><linearGradient id="linear-gradient-3" x1="111.21" y1="72.1" x2="135.28" y2="197.62" gradientTransform="translate(16.98 9.72) rotate(-1.74)" xlink:href="#linear-gradient"/><linearGradient id="linear-gradient-4" x1="167.47" y1="74.28" x2="198.19" y2="234.42" gradientTransform="matrix(0.97, -0.24, 0.24, 0.97, -26.9, 16.12)" xlink:href="#linear-gradient"/><linearGradient id="linear-gradient-5" x1="248.81" y1="-21.08" x2="265.01" y2="63.4" gradientTransform="translate(27.24 150.61) rotate(-19.41)" xlink:href="#linear-gradient"/><linearGradient id="linear-gradient-6" x1="167.53" y1="174.35" x2="182.71" y2="253.48" gradientTransform="translate(62.74 -165.57) rotate(24.44)" xlink:href="#linear-gradient"/><linearGradient id="linear-gradient-7" x1="236.02" y1="151.39" x2="255.81" y2="254.59" gradientTransform="matrix(0.97, 0.24, -0.24, 0.97, 21.32, -185.53)" xlink:href="#linear-gradient"/><linearGradient id="linear-gradient-8" x1="255.36" y1="164.12" x2="271.56" y2="248.6" gradientTransform="translate(301.25 -158.16) rotate(54.91)" xlink:href="#linear-gradient"/><linearGradient id="linear-gradient-9" x1="50.37" y1="-50.3" x2="67.24" y2="37.7" gradientTransform="matrix(0.81, -0.59, 0.59, 0.81, 110.62, 228.54)" xlink:href="#linear-gradient"/><linearGradient id="linear-gradient-10" x1="377.67" y1="352.04" x2="279.16" y2="352.04" gradientUnits="userSpaceOnUse"><stop offset="0" stop-color="#410a54"/><stop offset="0.19" stop-color="#430c52" stop-opacity="0.92"/><stop offset="0.45" stop-color="#4a134b" stop-opacity="0.71"/><stop offset="0.75" stop-color="#541f40" stop-opacity="0.35"/><stop offset="1" stop-color="#5f2a35" stop-opacity="0"/></linearGradient><linearGradient id="linear-gradient-11" x1="50.54" y1="352.04" x2="149.05" y2="352.04" gradientUnits="userSpaceOnUse"><stop offset="0" stop-color="#410a54"/><stop offset="0.19" stop-color="#430c52" stop-opacity="0.92"/><stop offset="0.45" stop-color="#4a134b" stop-opacity="0.71"/><stop offset="0.75" stop-color="#541f40" stop-opacity="0.35"/><stop offset="1" stop-color="#5f2a35" stop-opacity="0"/></linearGradient>
</defs>
<title>Foot</title>

<g id="Pied">
<path class="cls-10" d="M200.29,239.06c-.2,3.06,1.77,9.36,6.81,12.62,6.41,4.15,13.34-3.56,13.91-9.64s.75-16.75,3.94-24.86,14.4-26.89,2.22-37.72-28.49-8.47-32.08,4.15c-3.31,11.63,9.11,18,12.32,22.41C214.22,215.39,201.29,223.95,200.29,239.06Z"/>
<path class="cls-10" d="M193.75,155.59c3.26-.63,6.53,2.84,7.31,7.75s-1.23,9.4-4.49,10-6.53-2.84-7.31-7.75S190.49,156.22,193.75,155.59Z"/>
<path class="cls-10" d="M206.61,155.45c2.65-.51,5.3,2.31,5.94,6.29s-1,7.63-3.64,8.14-5.3-2.31-5.94-6.29S204,156,206.61,155.45Z"/>
<path class="cls-10" d="M219,158.44c2.38.26,4,3.38,3.72,7s-2.52,6.28-4.9,6-4-3.38-3.72-7S216.66,158.17,219,158.44Z"/>
<path class="cls-10" d="M229.35,165.09c1.92.8,2.68,3.81,1.68,6.71s-3.36,4.6-5.29,3.8-2.68-3.81-1.68-6.71S227.43,164.29,229.35,165.09Z"/>
<path class="cls-10" d="M235.36,171.93c1.69.7,2.34,3.33,1.47,5.87s-2.94,4-4.63,3.32-2.34-3.33-1.47-5.87S233.68,171.23,235.36,171.93Z"/>
</g>
</svg>