<svg id="Layer_1" data-name="Layer 1" xmlns="http://www.w3.org/2000/svg" xmlns:xlink="http://www.w3.org/1999/xlink" viewBox="0 0 460.67 160.67"><defs><style>.cls-1{fill:url(#linear-gradient);}.cls-2{fill:url(#linear-gradient-2);}.cls-3{fill:url(#linear-gradient-3);}.cls-4{fill:url(#linear-gradient-4);}.cls-5{fill:url(#linear-gradient-5);}.cls-6{fill:url(#linear-gradient-6);}.cls-7{fill:url(#linear-gradient-7);}.cls-8{fill:url(#linear-gradient-8);}.cls-9{fill:url(#linear-gradient-9);}.cls-10{fill:#410c54;}.cls-11{fill:url(#linear-gradient-10);}.cls-12{fill:url(#linear-gradient-11);}</style><linearGradient id="linear-gradient" x1="103.64" y1="86.25" x2="117.26" y2="157.24" gradientTransform="matrix(0.97, 0.26, -0.26, 0.97, 15.34, -80.79)" gradientUnits="userSpaceOnUse"><stop offset="0" stop-color="#9dc44d"/><stop offset="1" stop-color="#5ea69b"/></linearGradient><linearGradient id="linear-gradient-2" x1="101.41" y1="83.69" x2="113.9" y2="148.83" gradientTransform="translate(23.05 -66.78) rotate(8.54)" xlink:href="#linear-gradient"/><linearGradient id="linear-gradient-3" x1="14.63" y1="34.38" x2="27.13" y2="99.51" gradientTransform="translate(19.04 11) rotate(-1.74)" xlink:href="#linear-gradient"/><linearGradient id="linear-gradient-4" x1="53.49" y1="17.9" x2="69.43" y2="101" gradientTransform="matrix(0.97, -0.24, 0.24, 0.97, -9.48, 24.58)" xlink:href="#linear-gradient"/><linearGradient id="linear-gradient-5" x1="88.57" y1="-108.79" x2="96.98" y2="-64.95" gradientTransform="translate(51.97 161.2) rotate(-19.41)" xlink:href="#linear-gradient"/><linearGradient id="linear-gradient-6" x1="95.78" y1="204.87" x2="103.66" y2="245.94" gradientTransform="translate(38.91 -189.5) rotate(24.44)" xlink:href="#linear-gradient"/><linearGradient id="linear-gradient-7" x1="120.89" y1="188.26" x2="131.16" y2="241.81" gradientTransform="matrix(0.97, 0.24, -0.24, 0.97, 6.34, -198.07)" xlink:href="#linear-gradient"/><linearGradient id="linear-gradient-8" x1="169.22" y1="283.84" x2="177.63" y2="327.68" gradientTransform="translate(264.85 -222.1) rotate(54.91)" xlink:href="#linear-gradient"/><linearGradient id="linear-gradient-9" x1="-12.54" y1="-200.51" x2="-3.79" y2="-154.85" gradientTransform="matrix(0.81, -0.59, 0.59, 0.81, 158.26, 241.21)" xlink:href="#linear-gradient"/><linearGradient id="linear-gradient-10" x1="432.68" y1="127.57" x2="346.97" y2="127.57" gradientUnits="userSpaceOnUse"><stop offset="0" stop-color="#410c54"/><stop offset="0.19" stop-color="#430e52" stop-opacity="0.92"/><stop offset="0.45" stop-color="#4a154b" stop-opacity="0.71"/><stop offset="0.75" stop-color="#541f40" stop-opacity="0.35"/><stop offset="1" stop-color="#5e2a35" stop-opacity="0"/></linearGradient><linearGradient id="linear-gradient-11" x1="148.07" y1="127.57" x2="233.78" y2="127.57" gradientUnits="userSpaceOnUse"><stop offset="0" stop-color="#410c54"/><stop offset="0.19" stop-color="#430e52" stop-opacity="0.92"/><stop offset="0.45" stop-color="#4a154b" stop-opacity="0.71"/><stop offset="0.75" stop-color="#541f40" stop-opacity="0.35"/><stop offset="1" stop-color="#5e2a35" stop-opacity="0"/></linearGradient></defs><title>Artboard 1</title><path class="cls-1" d="M82.48,85.49S66.26,61.63,93.8,35.92c0,0,25.21,29.68-7,49.84,0,0,.76-19.14,4.38-26.93C91.13,58.82,81.43,75.78,82.48,85.49Z"/><path class="cls-2" d="M93.44,87.79s10-21,39-12.33c0,0-10.34,29.59-37.49,15.4,0,0,13.6-7.26,20.49-7.92C115.47,82.94,99.74,83.11,93.44,87.79Z"/><path class="cls-3" d="M63.14,88.2S44,101.67,22.75,79.65c0,0,23.77-20.84,40.55,5.09,0,0-15.55-.38-21.92-3.22C41.38,81.52,55.28,89.17,63.14,88.2Z"/><path class="cls-4" d="M67.95,81.87S43.13,73.41,49.08,39.69c0,0,34.53,7.78,22.12,40.05,0,0-9.9-14.32-11.53-22C59.66,57.78,61.89,75.41,67.95,81.87Z"/><path class="cls-5" d="M106.87,68.41s-.7-15.62,19.32-19.64c0,0,3.19,20.86-17.43,21,0,0,5.8-8.61,9.68-11.17C118.44,58.57,109.14,63.64,106.87,68.41Z"/><path class="cls-6" d="M45.4,69S30.82,71.33,24.93,53c0,0,19.25-5.18,21.53,14.16,0,0-8.69-4.54-11.51-7.92C35,59.2,40.68,67.4,45.4,69Z"/><path class="cls-7" d="M73.94,50.38S62.38,38.06,76,20.67c0,0,17.29,14.87.46,29.48,0,0-1.3-11.14.08-16C76.51,34.16,72.45,44.87,73.94,50.38Z"/><path class="cls-8" d="M94.15,97.38s14.85-4.89,24.14,13.29c0,0-19.22,8.71-24.91-11.11,0,0,9.85,3.26,13.38,6.3C106.74,105.86,99.35,98.28,94.15,97.38Z"/><path class="cls-9" d="M63.84,100.21s-5.79,15.36-26.78,11c0,0,5.55-21.46,25.51-13.05,0,0-9.16,5.92-14,6.79C48.6,104.92,59.67,103.87,63.84,100.21Z"/><path class="cls-10" d="M71,128.28a8.18,8.18,0,0,0,3.53,6.55c3.33,2.15,6.92-1.85,7.22-5s.39-8.69,2-12.9S91.28,103,85,97.35,70.17,93,68.31,99.51c-1.72,6,4.73,9.34,6.39,11.63C78.24,116,71.53,120.44,71,128.28Z"/><path class="cls-10" d="M67.62,85c1.69-.33,3.39,1.47,3.8,4s-.64,4.88-2.33,5.21-3.39-1.47-3.8-4S65.93,85.3,67.62,85Z"/><path class="cls-10" d="M74.29,84.9c1.37-.27,2.75,1.2,3.08,3.27s-.52,4-1.89,4.23-2.75-1.2-3.08-3.27S72.92,85.16,74.29,84.9Z"/><path class="cls-10" d="M80.74,86.44c1.24.14,2.1,1.75,1.93,3.62s-1.31,3.26-2.54,3.12S78,91.43,78.2,89.57,79.51,86.31,80.74,86.44Z"/><path class="cls-10" d="M86.09,89.9c1,.42,1.39,2,.87,3.48s-1.74,2.39-2.74,2-1.39-2-.87-3.48S85.09,89.48,86.09,89.9Z"/><path class="cls-10" d="M89.21,93.45c.87.37,1.22,1.73.76,3s-1.53,2.09-2.4,1.72-1.22-1.73-.76-3S88.34,93.08,89.21,93.45Z"/><path class="cls-10" d="M185.26,94.89a15.68,15.68,0,0,1-2.94-6.48,22,22,0,0,1-.22-7.29,5.61,5.61,0,0,0,.07-1c-.22-1,.37-1.91.44-2.72.07-.22.29-.52.29-.74a13.69,13.69,0,0,1,.52-2.5,2.06,2.06,0,0,0,0-1.18c-.88.44-1,1.25-1.32,1.77-.74,1.1-1.55,2.28-2.28,3.16-.29.59-1,.66-1,1.62a33.21,33.21,0,0,1-2.5,3.24c-.22.07-.44.37-.59.44a21.7,21.7,0,0,1-1.47,1.91c-.29.44-.59,1-1,1.47l-.22.52a53,53,0,0,1-3.68,4.12,28,28,0,0,1-3.83,3.39,10.43,10.43,0,0,1-4.64,1.47,2.72,2.72,0,0,1-1.25-.37,4.12,4.12,0,0,1-1.18-.52c-2.65-2.21-2.43-4.12-.74-10.08.37-1.4,1-2.8,1.4-4,1.32-3.68,2.06-6.18,3.09-9.35.66-2,1.18-3.83,1.62-5.74.52-2.35,1.1-4.78,1.55-7.29a8,8,0,0,0,.07-1.4c-.07-1.1-.66-1.4-1.69-.88l-2.65,1.55a13.17,13.17,0,0,0-3.68,3.61,27.61,27.61,0,0,0-2,3.09,20.88,20.88,0,0,0-1.91,4.78,6.77,6.77,0,0,0-.44,2.43c-.15.22,0,.52-.15.81-.07.88-.59,1.18-1.32.74a3,3,0,0,1-1.25-3.75,22.47,22.47,0,0,1,1-2.87,24,24,0,0,1,2.36-4.27,18.59,18.59,0,0,1,9.42-8,3.65,3.65,0,0,1,2.5,0c2.94,0,3.61,1.18,3.53,3.16A135.88,135.88,0,0,1,165.9,71c-.37,1.55-1,3.16-1.55,4.64-.59,1.69-1.18,3.39-1.69,5-.88,2.65-1.62,5.37-2.28,8a9.69,9.69,0,0,0-.29,1.77,3.56,3.56,0,0,0,.37,2.43,1.33,1.33,0,0,0,1.4.81,3.87,3.87,0,0,0,2.06-.74,18.11,18.11,0,0,0,4.2-3.61c.74-.88,1.62-1.77,2.36-2.5l.52-.59c1.69-2.28,2.8-3.75,4.34-5.67a32.37,32.37,0,0,1,2.58-3.16,18.33,18.33,0,0,0,1.33-1.77c.74-1,1.55-2,2.13-3a17.09,17.09,0,0,0,2.06-3.24c1.55-2.94,3.61-5.52,4.93-8.69a54.67,54.67,0,0,1,3.39-6.48c.44-.66,1-1.32,1.47-2a1.18,1.18,0,0,1,1.32-.29c.44.22,1.62-.15,2,1a8,8,0,0,1-1.18,2.58,22.93,22.93,0,0,1-2,3.16c-1.4,2-2.06,4.2-3.24,6.33a35.82,35.82,0,0,0-2.65,6.4c-.52,2.43-.81,4.49-1.25,6.92a11.42,11.42,0,0,0-.22,2.28c-.15.81,0,1.77-.22,2.8-.52,3.46.44,6.85,1.77,10A11.27,11.27,0,0,0,192,97.84c.59.29,1.84,1-1.1.74A9.09,9.09,0,0,1,185.26,94.89Zm-26.79-8c-.44,1.18-1.18,2.21-.81,3.53C157.73,89.22,158.91,88.27,158.47,86.87Zm.59-2.28a3.15,3.15,0,0,0,1-2.8,2.5,2.5,0,0,0,.74-2,4.11,4.11,0,0,0-.74,2,7.1,7.1,0,0,0-1,2.8,2.2,2.2,0,0,0-.44,1.47A1.08,1.08,0,0,0,159.05,84.59ZM162,77.37c.37-1.47.81-2.87,1.25-4.27a3.54,3.54,0,0,0,0-.88c0,.15-.07.22-.22.29-.52,1.77-1.4,3.38-1.47,5.37C161.63,77.67,162,77.6,162,77.37Zm2.28-8.61a6.27,6.27,0,0,1,.44-1.25c-.22,0-.22-.15-.29-.15a9.52,9.52,0,0,0-.29,1.4Zm7.21,18.77a.54.54,0,0,0,.59-.59,2.22,2.22,0,0,1-.59.59c-.52.37-1.1.81-1.1,1.4C171.05,88.71,171.27,88.19,171.49,87.53ZM178,79.58a10.21,10.21,0,0,0-.44,1C177.82,80.25,178.19,80,178,79.58Zm5.23,6.84c.29-2,.44-3.75.59-5.74a21.63,21.63,0,0,0,.37-3.75c-.15.15-.44.37-.52.59a18.79,18.79,0,0,0-.74,8.54A1.58,1.58,0,0,0,183.2,86.43Zm5.08-22.6a3.38,3.38,0,0,0-1,1.91A6.64,6.64,0,0,0,188.27,63.83Zm2.43-4.64c.15-.07.15-.29.29-.74a5.75,5.75,0,0,0-1.55,2.94A11.24,11.24,0,0,0,190.7,59.2Z"/><path class="cls-10" d="M195.63,88c-.07-.15-.07-.29-.15-.37-.52.07,0,.52-.22.66a1.23,1.23,0,0,1-.74-1.4c.22-1.25.37-2.43.66-3.75s.81-2.58,1.1-3.9c.22-.88.29-1.69.44-2.58,0-.07,0-.22-.07-.22-.22-.22-.15-.66-.07-1.1s.22-.66.66-.59a2.62,2.62,0,0,1,2,1.4c.07.07.07.07.07.15L199.09,78a11.92,11.92,0,0,1-.29,1.4c-.15.52-.22,1-.37,1.55a.56.56,0,0,1-.07.29c.07-.07.07,0,.07-.07a19.84,19.84,0,0,1,2.43-3,9.89,9.89,0,0,1,1.55-1.47,2.09,2.09,0,0,1,1.18-.29,2.27,2.27,0,0,1,1,.15c.22,0,.37.15.59.37-.22,0-.44.07-.59.07v.07c.59.07.88.66,1.55.22.07.37,0,.74.29.88.07,0,0,.22,0,.44a9.63,9.63,0,0,1,.44,2,14.34,14.34,0,0,1-.15,1.77,1.58,1.58,0,0,1,0,.59,12,12,0,0,1,.07,1.62l.22.74c0,.15.22.37.29.44h.22c.07-.07.29-.15,1.55-.81a4.1,4.1,0,0,0,1.25-.66,7.27,7.27,0,0,0,1.25-.81,1.13,1.13,0,0,0,.44-.29,6.09,6.09,0,0,1,1.1-.81c-.15-.07-.22-.07-.15-.15a17,17,0,0,0-1.4,1c-.07-.07-.07-.07-.15-.07a39.86,39.86,0,0,0,6.84-7.29s.07,0,0,.07-.29.37-.37.52-.37.44-.15.66a.23.23,0,0,1-.07.15c-.29.07-.29.07-.52.44h.37a3.91,3.91,0,0,0-.66.81l-.07,1h.07c-.15.37-.15.66-.29,1a2.79,2.79,0,0,1-.74.88l-1.25,1.47a.93.93,0,0,1-.44.59.36.36,0,0,0,.07.22c-.07.07-.29.07-.29.15a6.81,6.81,0,0,1-1.4,1.55,8.91,8.91,0,0,1-1.77,1.47,8.11,8.11,0,0,1-3.39,1h-.07c-.52-.22-.74-.22-1.1-.66A4.26,4.26,0,0,1,204.61,85a11,11,0,0,1-.52-4.2c0-.37.07-.88.07-1.32-.15-.15-.29-.22-.37-.44-.22.81-.52,1-1,1.1a1.67,1.67,0,0,1-1,1.18c.07.59-.44.66-.66,1s-.52.59-.37.59c.22.52-.44.22-.37.52a.27.27,0,0,1-.22-.07c.07.44-.29.66-.59.81.07.07.15.15.15.22s-.15.15-.15.15l.22.22a21.63,21.63,0,0,0-1.25,2.21,1.25,1.25,0,0,1-1,.59l-.22.52c-.15.07-.15.15-.22.22-.29.59-.59.66-1.18.52S195.56,88.34,195.63,88Zm3.9-7.66.66-.81c.07,0,0,.07,0,.07a1.19,1.19,0,0,1-.29.52l.07.07c.29-.15.44-.29.74-.44-.07-.15-.15-.15-.22-.22.15-.07.22-.07.22-.15s.37-.59.74-.44c.07,0,.15-.15.15-.15-.15-.44.15-.59.37-.81.07.07.22.15.22.07a2.41,2.41,0,0,1,.44-.44c-.52-.07-.88-.07-1.18.22l-.88,1-1.1,1.4S199.53,80.25,199.53,80.39Zm1.69.22c.22-.37.74-.22.74-.81h.22c0-.29-.15-.37-.22-.52-.07.22-.66.22-.37.74a1.52,1.52,0,0,1-.44.15A.79.79,0,0,0,201.22,80.61Zm12.29,1.91a.16.16,0,0,0,.15-.15,5,5,0,0,0,.88-.88,2.55,2.55,0,0,0,.59-.66.26.26,0,0,0-.15-.07c-.59.59-1.1,1.1-1.62,1.69C213.44,82.53,213.44,82.53,213.52,82.53Z"/><path class="cls-10" d="M245.09,81.2a14.44,14.44,0,0,1-1.1,2.43,20.6,20.6,0,0,0-1.55,2l-1.55,1.32a16.55,16.55,0,0,1-1.62.81c-.15,0-.37.07-.44,0a13,13,0,0,1-1.25-.44c-.29-.15-.52-.22-.59-.66l-.15-.07a2,2,0,0,1-.88-1.69c-.15-.22.15-.44.15-.81.44,0,.44.37.52.66a.6.6,0,0,0,.74.66,2.73,2.73,0,0,0,1.55-1.1,8.44,8.44,0,0,0,1.55-1.69,19.88,19.88,0,0,0,1.25-1.84v-.29c.07-.29.29-.52.29-.66a3.31,3.31,0,0,0,.37-1.84,3.92,3.92,0,0,0-.37-1.32,1.32,1.32,0,0,0-1.55,0,6,6,0,0,0-1.55.81h-.15a3.16,3.16,0,0,1-.74.66,4.79,4.79,0,0,1-1.18,1A7,7,0,0,0,235,80.83a14.41,14.41,0,0,1-2.06,2.58,12.84,12.84,0,0,0-1.4,2.65h-.44a.29.29,0,0,1,.15.29,10.77,10.77,0,0,1-.74,1c-.15,0-.15.29-.22.44a.8.8,0,0,0,.44-.07c-.37.44-.29,1.18-1,1.18h.07a.23.23,0,0,0,.15.07c-.15.52-.22.88-.37,1.33,0,.07-.22.07-.29.15.29.15.15.44,0,.81s.15.59-.37.66a2.41,2.41,0,0,1-.74,2.43c.15.07.22.07.29.15s-.15.07-.29.07c.15.07.15.07.22.07-.07.44,0,.81-.07,1.18a8.46,8.46,0,0,1-.59,1.91c-.15.59-.22,1-.37,1.47a.44.44,0,0,0,.07.29,2.17,2.17,0,0,1-.81.52.86.86,0,0,1,.44.59,5.6,5.6,0,0,0-.15.81,1.6,1.6,0,0,1-.44.07l.44.22a2.12,2.12,0,0,0-.59.52l.15.15a.76.76,0,0,0,.29.07,6.33,6.33,0,0,0-.66,2.87c0,.15-.15.29-.15.37a12.28,12.28,0,0,0-.22,1.32c0,.22-.07.29-.22.59a1.4,1.4,0,0,1-.44,1.62l.29.15-.44,1.4a.89.89,0,0,1,.07.37c-.07.59-.37,1.4-.44,2.14a5.84,5.84,0,0,0-.07,1.62,1.88,1.88,0,0,1-.15.88A8.61,8.61,0,0,1,224,117c0,.07-.07.15-.15.22s-.15-.07-.15-.07a3.17,3.17,0,0,0-.15.88,4.48,4.48,0,0,1-.74.22,4.28,4.28,0,0,1-1-.81,2.92,2.92,0,0,0,0-.81h-.29a4.6,4.6,0,0,0-.22.74,1.88,1.88,0,0,0-.66-.81c1.1-3.75,1.69-7.43,2.5-11.11.07,0,.15.07.29.07a1.26,1.26,0,0,1,.29-1.62,1.09,1.09,0,0,0-.44-.07,2.19,2.19,0,0,1,.29-.74.93.93,0,0,0,.15-1c-.15-.15.07-.44.15-.52a6.89,6.89,0,0,1,.52-1.1.73.73,0,0,1-.44.15,3.23,3.23,0,0,0,.81-2.28,2.41,2.41,0,0,0-.22.44v-.52c.29,0,.37-.29.52-.59l.44-2.35a5.09,5.09,0,0,0,.15-1,36.71,36.71,0,0,0,1.18-4.71c.22-1.1.52-2.13.81-3.31.15-.74.44-1.47.52-2.13.29-1.25.44-2.5.81-3.83.07-.74.29-1.47.44-2.28s.59-1.91.81-2.87a12,12,0,0,1,.74-1.84c.07-.52.22-.66.66-.59h.22c.66-.07,1,.37,1.18.81l.22,1a.89.89,0,0,1-.07.74,2.74,2.74,0,0,1-.15.66c-.29.15-.29.29-.07.59-.07.07-.07.22-.15.29-.15.66-.37,1.18-.52,2h-.15c-.07.74-.29,1-.44,2.72v.15A4.23,4.23,0,0,0,231.4,83c.22-.37.66-.59.81-1.18,0-.07-.07-.15.15-.15s.15-.15.37-.29a.4.4,0,0,1-.37-.22,1,1,0,0,1,.59-.37c.15-.37.15-.81.74-.66a1,1,0,0,1,.07-.37c.52-.07.88-.66.81-.88a2.25,2.25,0,0,1,.52-.37v-.44h.74C236,78,236,78,236,78c-.07-.37.29-.37.44-.44a5.06,5.06,0,0,1,1.69-1.18,1.76,1.76,0,0,1,.88-.52v-.29a10.43,10.43,0,0,1-1.18.37,2.7,2.7,0,0,0-1.18.66,25.17,25.17,0,0,0-2.06,1.62h-.15a.07.07,0,0,1-.07-.07.83.83,0,0,0,.44-.44c.07-.07.29-.22.29-.29.07-.29.07-.37.22-.44.44-.29,1-.37,1.33-.74a9.91,9.91,0,0,1,1.18-.88,4.9,4.9,0,0,1,2.36-.52,10.64,10.64,0,0,1,1.62.29c.37.07.59.22,1.1.37.07,0,.15.07.22.29v.15a5,5,0,0,0-.52-.15l-.22.07a3.49,3.49,0,0,1,.81.44,3.87,3.87,0,0,0,.88.22l.07-.15a5.58,5.58,0,0,1,.88,1.1c.15,0,.15.07.07.22,0,.37.07.66.07,1A6,6,0,0,1,245.09,81.2Zm-21.86,28.63c.07-.29.81-.37.29-1,.22-.15.37-.22.22-.44A1.91,1.91,0,0,1,224,107c.15-.07.22-.52.29-1.18l-.07-.15a.56.56,0,0,0,.15-.29v-.29c0-.22.22-.44.22-.52a.8.8,0,0,0-.37-.07c-.44,1.84-.81,3.46-1.1,5.23A.26.26,0,0,1,223.23,109.83Zm1.32-5.45c0-.22.07-.44.07-.66a1.5,1.5,0,0,1-.07-.37.57.57,0,0,1-.22.07c-.07.29-.07.59-.15,1Zm.22-2.06c.15-.15.22-.29.29-.37s-.07-.22-.37-.37c-.22.66-.22,1.18-.37,1.69C225,103,224.77,102.55,224.77,102.33Zm.22-.74c.07-.15.15-.15.29-.22l-.22-.15c.15-.44.29-.66.44-1a6.59,6.59,0,0,1,.44-1.47,6.31,6.31,0,0,1,.07-1.18,2.73,2.73,0,0,0,.29-1.1h-.22a3.62,3.62,0,0,1,.22-.52.44.44,0,0,0,.07-.29c0-.07,0-.22-.07-.22a3.36,3.36,0,0,1,.66-.22V95h-.59a3.76,3.76,0,0,0,.15-.66.67.67,0,0,1,.37.07,5.78,5.78,0,0,1-.15-1l.52-.22a.67.67,0,0,0-.37-.22c.22-.15.44-.22.44-.37a9.5,9.5,0,0,0,.29-1.84c.22-.52.22-.52-.22-.74,0,.22-.15.29-.15.44s.22,0,.29.07-.15.07-.37.22l.29.29c-.15,0-.29.15-.52.15v.44a3.64,3.64,0,0,0-.22,1c-.22.66-.29,1.47-.44,2.13a17.8,17.8,0,0,0-.74,2.65,5.72,5.72,0,0,0-.29,2.28l-.07.07a14.11,14.11,0,0,0-.44,1.55C224.77,101.37,224.85,101.44,225,101.59Zm.29,2.58c.07-.29.07-.59.15-1a1.72,1.72,0,0,0-.37,1.55A1.92,1.92,0,0,0,225.29,104.17Zm1.62-7.87a1.87,1.87,0,0,0-.22,1.47C226.61,97.25,227.28,96.73,226.91,96.29Zm.15,5.45c-.07,0-.15,0-.15-.07S227,101.74,227.05,101.74Zm.66-12c.15.07.22,0,.22-.07a7.73,7.73,0,0,0,.29-1.25l.22-1.25a1.7,1.7,0,0,1,.22-.66c-.15,0-.22,0-.15-.07a1.46,1.46,0,0,0-.44.66,2.05,2.05,0,0,0,.07.74c-.29,0-.22.22-.15.44-.22.29-.29.52-.44.66a.88.88,0,0,1,.15.44c-.07,0-.15.07-.22.22S227.64,89.74,227.72,89.74Zm1-3.61c.07-.52.29-1.18.37-1.69h-.22a6.93,6.93,0,0,1-.29,1.18c0,.22,0,.44-.07.52Z"/><path class="cls-10" d="M250.6,85.84a6.74,6.74,0,0,0-1.18-.74,3.24,3.24,0,0,1-.59-2.94c.22-.52.37-.88.52-1.32.07-.07.07-.07.07-.15.07-.44.29-.81.44-1.32l.52-.88c.29-.37.44-.74.59-.88a38.9,38.9,0,0,1,2.65-3.24,5.9,5.9,0,0,1,3.53-2c1.55.29,3.31.59,3.61,2.28.22,1-.37,1.69-.74,2.43.59-.07,1.1-.66,2-.59a1.41,1.41,0,0,1,.88,1,3.76,3.76,0,0,1-.15,1.4c-.07.07-.07.22-.15.37a5.2,5.2,0,0,0,.22,3.17,1.37,1.37,0,0,0,.66.81.63.63,0,0,0,.52,0,4.58,4.58,0,0,0,.81-.22,20.19,20.19,0,0,0,3.39-2.14c1-.59,2.06-1.25,3.09-2,1.77-1.1,1.62-1,3.31-2.06a13.27,13.27,0,0,1,1.84-1.25l.22.15-.66.88c.15.37.15.37.59.07,0-.15,0-.44.37-.29a9.64,9.64,0,0,1-2.87,2.36,10.85,10.85,0,0,1-1.1.66,3,3,0,0,1-.88.74c-.07.07-.29.07-.52.15a.23.23,0,0,0-.07-.15,1.13,1.13,0,0,0,.44-.29.56.56,0,0,0,.37-.66c0-.07-.15-.15-.22-.15a10.59,10.59,0,0,0-1.47,1,9.06,9.06,0,0,0-2.28,1.4,6.86,6.86,0,0,1-.74.37V82c.22-.07.44-.07.59-.22a.57.57,0,0,1,.74-.07c0-.07-.07-.15-.07-.22.52-.22.88-.15,1.33-.52a9.38,9.38,0,0,0,1.25-.74.64.64,0,0,1-.29.52c-.59.29-1.18.74-1.77,1a1.25,1.25,0,0,0-.44.44,1.17,1.17,0,0,1-.52.29,1.43,1.43,0,0,0,.52.07l-.07.07a1.06,1.06,0,0,1-.52.15v.29c.37-.22.88-.44,1.25-.66v.15a7.41,7.41,0,0,0-1.18,1,9.37,9.37,0,0,1-2,1.32c-.44.22-.66.15-1,.37a2.18,2.18,0,0,1-.74.22,4.68,4.68,0,0,1-.66.15,7.12,7.12,0,0,1-1.25.07c-.15-.07-.59-.07-.74-.22s-.37-.37-.59-.44c-.44-.59-1-.88-1.25-1.55-.44-.44-.37-.59-.59-1-.15-.07-.15-.22-.22-.37-.52.29-.52,1-1,1-.15.15-.22.37-.37.44a17.61,17.61,0,0,1-3.24,2.14,4.25,4.25,0,0,1-3.53.15A1.82,1.82,0,0,1,250.6,85.84Zm3.31-2.43a5.84,5.84,0,0,0,2.36-1.69c1.1-1.18,1.62-2.06,2.72-3.24.07,0,.37-.37.37-.37h-.07c-1.62-.15-1-3.38-1-3.46-2.21.37-4.78,3.83-5.59,5.23a15.62,15.62,0,0,0-1.69,3.9A9.32,9.32,0,0,0,253.92,83.41Zm19-4.12c.07,0,.15-.22.15-.29a.42.42,0,0,1,.29-.44c.07-.15.37-.22.59-.29s.44-.07.59-.15v-.44c.15-.07.22-.22.29-.29s0-.15-.07-.15a6,6,0,0,1-.88.59,8.58,8.58,0,0,0-1.55,1.1A2.61,2.61,0,0,1,272.9,79.29Z"/><path class="cls-10" d="M282.4,73.69l-.15-.07-.07-.15a2,2,0,0,0-.81-.74l.07.15c.37.29.37.44.37.59v.07h-.22c-.22-.37-1-.59-1.84-.81h-.81c-.66.22-.66.07-1,.29a1.37,1.37,0,0,0-.52.44,1.22,1.22,0,0,0-.59.74,2.06,2.06,0,0,0,0,1.62,3.47,3.47,0,0,0,.37,1.77c0,.29.22.52.22.74s0,.29.15.37v.44l.29.52.15.37.22.66.37.29c-.07.15.15.22.22.37s.37.52.37.74a10.76,10.76,0,0,0,.52,1.4l.22.74a2.14,2.14,0,0,0,.22.81c.15.15.29.22.15.52s.22.22.22.37a6.8,6.8,0,0,1,0,2.72.85.85,0,0,1,0,.74c.29.29-.22.88-.29,1.32a2.21,2.21,0,0,1-.66,1.25,4.52,4.52,0,0,1-1.69,1.55,2,2,0,0,1-.66.07c0,.07.07.07.15.22l-.74.22A4,4,0,0,1,275,94c-.59-.15-1.18-.15-1.55-.29-.15-.15-.74-.15-1-.59a6,6,0,0,1-1.55-1.47,8.27,8.27,0,0,1-1.1-1.4,3.77,3.77,0,0,1-.59-2.06v-.07a.14.14,0,0,1,.15-.15l.07-1.32a8.66,8.66,0,0,1,1.91-1.77,4.49,4.49,0,0,1,1.32-.66v.07a7.09,7.09,0,0,0-2.72,3h.15c.07,0,.15-.07.29-.22a3,3,0,0,0,.44-.81A5,5,0,0,1,272.09,85l.74-.52.07.66-.88,1-.44,1a3.84,3.84,0,0,0,.22,2.43c.15.15.37.37.29.52,0,.66.44,1,1,1.55a2.31,2.31,0,0,0,1.4.29c1.4-.22,1.84-.44,2.43-1.25a3.43,3.43,0,0,0,.59-1.47,5.66,5.66,0,0,0,.07-1.91,4.9,4.9,0,0,0-.52-2.58l-1-2.65-.15-.22-.44-.88-.29-.44L275,80.1,275,79.8a10.25,10.25,0,0,0-.74-2,1.43,1.43,0,0,1-.22-1l-.29-.59c0-.29-.07-1.18.22-1.47.07-.52-.07-1.18.29-1.62a7.68,7.68,0,0,0,.88-1.25,2.54,2.54,0,0,1,.88-.52l.66-.37a6.77,6.77,0,0,1,1.91-.37,2.91,2.91,0,0,1,2.06.52C282.47,72.37,282.4,73.4,282.4,73.69Zm-6.92,4.49c.07.07.07,0,.15,0-.07-.29-.07-.66-.15-1.18-.07,0-.07,0-.15.22A2.34,2.34,0,0,0,275.48,78.18ZM277,81.94c.15-.52-1-2.5-1.55-2.8C275.85,80,276.51,81,277,81.94Zm-.29-3.24.15.07.22-.37c-.15-.44-.37-.66-.52-1l-.07.15A6.67,6.67,0,0,1,276.73,78.7Zm.59,4a1.19,1.19,0,0,0-.22-.66C277,82.45,276.88,82.38,277.32,82.67Zm.07-3.24c-.37,0-.52.59-.22.88Zm1,2.5c0,.07.07.07.15.07a3.39,3.39,0,0,0-.74-1A1.08,1.08,0,0,0,278.42,81.94Zm2.72-9.42c.07,0,.22,0,.07-.07a3.13,3.13,0,0,0-1.1-.66c-.07,0-.07.07,0,.07C280.48,71.93,280.78,72.3,281.15,72.52Z"/><path class="cls-10" d="M337.76,44.66v.22a2,2,0,0,1,.37-.59c-.44-.81.29-1.33.37-2a3.45,3.45,0,0,1-.29,2,7.16,7.16,0,0,1-.22,1.1,2.6,2.6,0,0,0-.44-.07l-.15.52h.07c.07-.07.22-.15.37-.29v.15c-.15.88-.44,1.69-.66,2.72,0,.15-.22.22-.22.22.22.44-.15.66-.52.81-.07,0-.07.07-.07.29a.5.5,0,0,1,.22-.29c.74.88-.29.44-.37.74a1.14,1.14,0,0,0,.29.44v.07a1.09,1.09,0,0,1-.44-.07c0,.44.07.81.07,1.1a1.08,1.08,0,0,0-.52.07v.07l-.07.37a6.31,6.31,0,0,0-.07,1.18c-.07,0-.15.07-.37.15s-.44.22-.29.52.07.52-.22.81a4.59,4.59,0,0,1-.59,1.55,1.25,1.25,0,0,1,.07-.52,2,2,0,0,1-.66-.07l.52-.88c-.29,0-.52.37-.74,1.1a1.56,1.56,0,0,1,.52.22c-.29.29-.88.44-.52,1a2.87,2.87,0,0,0-.44.81h-.15a1.49,1.49,0,0,1-.44,1.4,4.33,4.33,0,0,1-1,.81c.15.22.22.29.22.37h-.07a5.46,5.46,0,0,0-1,1.62c-.22.66-.52,1-.66,1.47,0,0-.07-.15-.15-.15a4.72,4.72,0,0,0,.15-.52,1.68,1.68,0,0,1-.37.37v-.37c.07-.15.22-.29.22-.44.15-.37.07-.52.37-.59.07,0,.15-.22.22-.29a17.28,17.28,0,0,0,1-1.47,4.66,4.66,0,0,0,.52-.88l-.07-.07c-.29.15-1.4,1.18-1.62,1.32-.07.59-.22.81-.74.74a1.35,1.35,0,0,1,.15-.66s-.07,0-.22-.15a7,7,0,0,1-.88,1.18,7.88,7.88,0,0,1-1.1,1.62c-.15,0-.22.15-.15.22a1,1,0,0,1-.66.74.36.36,0,0,0,.07.22c-.07.15-.52.29-.44.81l-.07.07a15.47,15.47,0,0,1-1,1.25c-.15,0-.15.29-.22.37s.07.07.22.07c.22-.37.59-.66.74-1,.07,0,.07-.15.07-.22.59-.22.88-1,1.18-1.47s.66-.74.88-1.1a7.28,7.28,0,0,0,1-1.47c.29-.37.29-.37.81-.22.22.37-1,.15-.52.88-.44.07-.37.52-.51.88a.23.23,0,0,0-.07.15c-.88.37-.88,1-1.1,1.4A13.71,13.71,0,0,1,326,66.81V67a2.59,2.59,0,0,1,.66-.52c.22-.44.52-.88.81-1.4s.66-.52,1.1-.37c-.22.52-1,.15-1,.88.37.15.37.15-.07.59-.07,0-.22-.15-.22-.15a7.7,7.7,0,0,1-1.55,2.72h-.22a6.66,6.66,0,0,0,.81-1.62.07.07,0,0,1-.07-.07.67.67,0,0,1-.22.52.07.07,0,0,1-.07-.07v-.22h-.15l-1,1-1.62,2.28c-.37.44-.66.66-.88,1-.37.59-.81,1.18-1.25,1.77a.29.29,0,0,1-.29.15c-.37.07-.59.15-.52.52-.29-.07-.66-.29-.81.15a5.13,5.13,0,0,0-.15.88,1,1,0,0,0,.88-.44,12.11,12.11,0,0,0,1.55-1.77c.52-.52.88-1.18,1.4-1.69A17.94,17.94,0,0,1,324.66,69c0-.15.22-.22.37-.29s.07.07.07.15.29.52.59.44a.83.83,0,0,0-.37.59c-.15-.07-.37-.07-.59-.15-.15.52-.66.81-.52,1.55a3,3,0,0,0-.44-.15v.07c.15.07.22.07.22.22a2.57,2.57,0,0,0-.66.29c.37.44-.07.66-.22.88a3.26,3.26,0,0,0-1,1c-.37.37-.37.37-.52.37s-.15.29-.29.52-.22.29-.29.44l-3.24,4.12a.79.79,0,0,0-.15.52v.29c0,.07,0,.29-.15.37.15.15.07.37-.15.74-.15.15.07.52.07.81l.37,2.58.22.81c0,.07.15.52.29.59a2,2,0,0,0,.88.74,4.84,4.84,0,0,0,2.28.22,11.74,11.74,0,0,0,3.31-.74c1.84-.66,3.53-1.77,5.37-2.58a8.65,8.65,0,0,0,1.1-.66c.15-.07.15,0,.29,0a39.58,39.58,0,0,1-6.4,3.61l.52.15c.44,0,.74.22,1.18-.07a6.62,6.62,0,0,1,.74-.15l.07-.37c1-.74,2.06-1.32,2.94-1.91.07.07.07.07.22.07-.52.52-.81.88-1.4,1.4,0,0,.22.07.22.22a23.87,23.87,0,0,0-2,1.69c-.74.44-2.5.88-3.16,1.25a6.19,6.19,0,0,1-1.77.52,3.06,3.06,0,0,1-1.18.15c-.44,0-1-.15-1.47-.15a6.51,6.51,0,0,1-2.94-.81,3.74,3.74,0,0,1-1.55-1.91l-.22-.22-.07-.29c-.22-1-.59-1.91-.74-2.43l-.81,1.18a6.44,6.44,0,0,0-.44.74c-.74,1-.88,1-1.32,1.55s-1.1,1.1-1.62,1.69-1.32.81-2.13,1.25a4.15,4.15,0,0,1-3.46.37,4.69,4.69,0,0,1-1.62-1c-.29-.22-.44-.81-.74-1.32-.07-.15,0-.44-.07-.74-.15-.66-.74-1.25-.59-2.14a12.16,12.16,0,0,0,.52-2.35v-.07h.15c.29-.74.66-1.84.81-2.21,0,0,0-.07.15-.07a10.61,10.61,0,0,1,1-1.69l.44-.66c4.42-4.93,8.68-2.87,8.68-2.87A2.32,2.32,0,0,1,313.4,79h-.15c-1,.07-1.4-.37-1.55-1.4-.29-.74-1-.88-2.21-.44a5.54,5.54,0,0,0-1,.81,9.38,9.38,0,0,0-2.28,3.09,9.46,9.46,0,0,1-.52,1,.8.8,0,0,1-.15.52,10.47,10.47,0,0,0-.44,2.06c-.07.22-.07.52-.22.66-.52,1-.15,1.77-.22,2.65a2.36,2.36,0,0,0,2.28-.29,6,6,0,0,0,1.62-1.18c.66-.52,1-1.25,1.62-1.77.29-.59.88-1,1.25-1.47l2-2.8,1.18-2.13a6,6,0,0,0,.52-1.1,4.61,4.61,0,0,1,.15-.52,1.47,1.47,0,0,0,.15-.66l.74-4.93c.29-1.25.52-2.36.88-3.68.22-1,.37-1.91.59-3a5.28,5.28,0,0,0,.37-1l.37.15a2.61,2.61,0,0,0,.22-.81c-.22.15-.37.37-.59.52,0-.15,0-.37.07-.44.37-1.32.74-2.58,1.18-3.83a44.66,44.66,0,0,1,1.77-5.3c.07-.29.15-.29.52-.07,0-.15.15-.22.15-.44a2,2,0,0,0-.59.22,9.94,9.94,0,0,1,.81-1.91l.66-2c.37-.66.66-1.32,1.1-2.13.22-.44.29-.88.59-1.4a3,3,0,0,0,.59-1l.66-1.25c0-.15,0-.15.07-.22a9.34,9.34,0,0,0,1.1-1.91.16.16,0,0,1,.15-.15c.22-.37.59-.74.81-1.1.07-.07.07-.07.07-.15,0-.66.59-1,.88-1.4s.66-.81,1-1.25a6.72,6.72,0,0,1,4-2.06,4.25,4.25,0,0,1,3.46.81c.81.44,1,1.32,1.47,2.21.15.59-.29,1.25-.07,1.84a.57.57,0,0,1-.22.29l.59.22V41h-.37A32.28,32.28,0,0,0,337.76,44.66Zm-35,38.57c0-.07.07-.07.07-.15v-.29h-.15A.93.93,0,0,0,302.73,83.23Zm8.68.88.22-.15c.15.07.15.15.29.37a5.34,5.34,0,0,1,.81-1.4.62.62,0,0,1-.52,0,7.41,7.41,0,0,1-1,1.18Zm6-17c.07-.44.29-1.1.37-1.62h-.22a15.17,15.17,0,0,1-.29,1.62Zm.81,6.26c.07-.15.22-.22.22-.29a12.7,12.7,0,0,0,.81-1c.66-.74,1.32-1.69,2-2.58.44-.44.81-1.1,1.32-1.69l1.4-2,1.69-2.35c.52-.74,1-1.62,1.55-2.36a14.15,14.15,0,0,1,1.25-1.91c.74-1.4,1.62-2.8,2.36-4.27a15.57,15.57,0,0,0,1.32-2.43l1.18-3.16.66-1.47a16,16,0,0,0,.81-2.94c.22-1.47.52-2.72.81-4.2a5.35,5.35,0,0,0-.29-3.39c0-.22-.07-.37-.15-.37a2.28,2.28,0,0,0-.88.37l-.52.59a2.25,2.25,0,0,1-.74.52l-1.4,1.4a20.45,20.45,0,0,0-2.43,3.09,5.9,5.9,0,0,0-.66,1,14.69,14.69,0,0,1-1.18,1.77,11.43,11.43,0,0,1-.59,1.4,8.94,8.94,0,0,1-.66,1.47c-.29.52-.52,1-.81,1.4a9.29,9.29,0,0,1-.29,1,3.09,3.09,0,0,0-.59.88c-.15.44-.22,1-.37,1.55a19.73,19.73,0,0,0-1,2.5c-.22.52-.59,1-.81,1.62h.37c-.37.44-.22,1.25-.81,1.4,0,.15.07.22.07.37-.15.52-.22,1-.37,1.4a18.37,18.37,0,0,0-.66,1.84,3.76,3.76,0,0,1-.44,1.47,6.16,6.16,0,0,1-.59,1.47c-.07.29.07.74.29.81a3.79,3.79,0,0,0-.37.88.57.57,0,0,0-.07.22c-.44.59-.15,1.18-.37,1.62,0,.07.22.15.22.15s.07.22,0,.29c-.22.37-.37.81-.59,1.18-.07-.07-.07-.22-.15-.37-.07.07-.22.07-.22.15.22.44.44.81.15,1.25s-.29,1-1,1C318.48,72.85,318.48,72.85,318.26,73.36Zm0-7.36c-.07.52-.37,1.1-.44,1.77Q318.59,66.34,318.26,66Zm.22-.37a31,31,0,0,0,.88-3.53s-.07,0-.07-.15l-.88,3.61A.07.07,0,0,1,318.48,65.64Zm.52,8.61a7.2,7.2,0,0,0,.81-1c.15-.37.07-.52-.15-.59-.22.37-.44.59-.74,1-.15,0-.07-.07-.15-.07a2.06,2.06,0,0,0-.07.59Zm.59-12.51a10.36,10.36,0,0,1,.44-1.62c-.15,0-.15-.15-.22-.15a8.82,8.82,0,0,1-.44,1.77Zm.44-3.83c.22-.59.44-1.32.66-2a.32.32,0,0,0-.22.07.07.07,0,0,0-.07.07,17.05,17.05,0,0,1-.52,1.84Zm2.06-6.11a2.27,2.27,0,0,1-.59,1C322.09,52.61,322.23,51.95,322.09,51.8Zm.29,2.8c.15-.52.37-1,.52-1.47,0,0-.15,0-.15-.07a8.7,8.7,0,0,1-.52,1.47S322.23,54.6,322.38,54.6Zm.29-3.83.22-.66a9.07,9.07,0,0,0,.88-1.91c.22-.22.22-.59.29-.81s.29-.37.44-.59a7.83,7.83,0,0,1,.66-1.4c.29-.52.66-1.1,1-1.62a26,26,0,0,1,2.21-3.31,10.58,10.58,0,0,0,.59-1v-.37a1.29,1.29,0,0,1-.37.29,5.63,5.63,0,0,1-.81,1.18,1.68,1.68,0,0,0-.52.74c-.22.15-.22.52-.44.81s-.37.44-.52.74a1.48,1.48,0,0,1-.74.88,1,1,0,0,1,.22.37c-.44.52-.74,1.18-1.18,1.77-.15.59-.59.88-.59,1.47a12.34,12.34,0,0,1-.74,1c-.22.66-.52,1.25-.74,1.91C322.45,50.4,322.6,50.55,322.68,50.77Zm1.69,17.08c-.22-.07-.88.22-.88.44s0,.37-.07.59C323.78,69,324.07,68.8,324.37,67.84Zm5.89-8.91v-.07c-.07-.07-.15-.15-.22-.15.15-.29.29-.44.44-.74s.29-.37.44-.52a17.43,17.43,0,0,0,1.18-1.55,2.16,2.16,0,0,1,.52-.88c.07-.29.29-.52.37-.81a.26.26,0,0,1,.07-.15c.66-.15.52-.59.74-1.1l-.29.52a1.06,1.06,0,0,1,.81-1.18c-.22-.88.44-1.62.66-2.58a14.8,14.8,0,0,0,.88-2.72h-.07c-.07.37-.37.88-.52,1.32s-.37,1.1-.59,1.62a7.17,7.17,0,0,1-1,2.13c-.29.59-.66,1.4-1,2.06a9,9,0,0,0-.88,1.4,4.48,4.48,0,0,1-.52,1c-.29.15-.29.59-.59.88s-.52.74-.66,1.18v.29Z"/><path class="cls-10" d="M342.1,86.47a17.67,17.67,0,0,0,2.72-1.62c-.07.15-.07.29-.15.37a9.39,9.39,0,0,1-1,.81l-1.4,1.1a10.86,10.86,0,0,0-1.55,1,17.65,17.65,0,0,1-2,1.18,4.71,4.71,0,0,1-1.47.29,1,1,0,0,0-.66.22,4.77,4.77,0,0,1-1.1.29,4.48,4.48,0,0,1-1.69.22,10.71,10.71,0,0,1-2.21-.44A4.18,4.18,0,0,1,330,89c-.07-.15-.29-.22-.37-.29a5.05,5.05,0,0,1-1.25-1.47c-.15-.15-.15-.15-.29-.88a4,4,0,0,1-.29-1.91,10.06,10.06,0,0,1,1.18-4.27,15.06,15.06,0,0,1,1-1.32c.66-.81,1.33-1.55,2-2.28a3.81,3.81,0,0,1,2.43-1.18,3.23,3.23,0,0,0,.74-.15c.74-.29,1.4.22,1.91.52a7.42,7.42,0,0,1,1.77,1.18,2.31,2.31,0,0,1,.74,2.21,3,3,0,0,1-.59,1c-.66.74-1.32,1.4-2,2.06-.22.22-.66.29-.74.52-.07.52-.59.59-.88.74l-.52.29a.32.32,0,0,1,.22.07,6.8,6.8,0,0,1-.74.37c-.07.07-.07.29-.15.37-.52.29-1.1.52-1.55.81-.22.07-.37.29-.52.44-.59.29-.81.37-1.32.66.29.88.44,1,1,1.25,1-.07,1.91,0,2.87-.15a10.18,10.18,0,0,0,2-.59c.52-.22,1.1-.52,1.69-.74a6.42,6.42,0,0,0,1.1-.37c.81-.52,1.69-1,2.43-1.4l.22-.15.07.07a1.58,1.58,0,0,1-.29.37c.07.07.15.15.07.22a1.4,1.4,0,0,0,.59-.15c.07.07.07.07,0,.15a9.29,9.29,0,0,0-1,.81,6.6,6.6,0,0,0,1,.37,2.37,2.37,0,0,0-.44.22A.25.25,0,0,0,342.1,86.47Zm-10.23-3.83c.15,0,.29.07.37,0a5.45,5.45,0,0,0,.88-.66c-.22,0-.29.07-.52.07.44-.37.66-.81,1.18-.81-.15.22-.37.37-.52.59a.07.07,0,0,0,.07.07c.66-.44,1.25-1,1.91-1.4l-.15-.15a2,2,0,0,1-.59.44,6.46,6.46,0,0,1-.74.44.27.27,0,0,0,.07-.22,22.77,22.77,0,0,0,2-1.77,4.58,4.58,0,0,0,1-1.32c.22-.37-.15-1-.44-.88a8.55,8.55,0,0,0-1.91.74,9.35,9.35,0,0,0-1.84,1.55,18.3,18.3,0,0,0-1.55,2.58,7.57,7.57,0,0,0-.52,1.55C331.21,83.08,331.58,82.86,331.87,82.64Zm6-4.34-.22-.59a2,2,0,0,0-.59,2C337.32,79.25,337.69,78.74,337.91,78.3Zm3.68,6.77c-.07-.22-.74,0-1.25.66A9.5,9.5,0,0,0,341.59,85.07Zm2.65-2.13c-.07.37-.52.52-2,1.25a.07.07,0,0,1-.07-.07C342.84,83.67,343.5,83.37,344.24,82.93Zm-1.84,2.21c.37.37,1-.37,1.62-.66l.52-.29c.29-.07.44-.29.15-.74-.52.44-1.18.81-1.77,1.33a1.74,1.74,0,0,0-.52-.22,5.82,5.82,0,0,0,2.14-1.77c.15-.15,1-.52,1.18-.74l.52.22a3.2,3.2,0,0,1,.44-.52c-.07-.07-.15-.07-.29-.15l.07-.07a3.65,3.65,0,0,0,.81-.07c-.07-.15-.15-.22-.15-.29l.37-.29-.07-.07-.29.22H347l1.25-.81.15.52a.07.07,0,0,1,.07.07c-.22.15-.37.37-.59.52-.44.29-.88.52-1.25.81v.07a.07.07,0,0,1,.07-.07.26.26,0,0,0,.07.15,4.7,4.7,0,0,1-.81.59l.07.29c-.29.15-.44.29-.22.52-.29.22-.74.22-.81.74a.07.07,0,0,1-.07.07c-.52,0-.81.52-1.18.81a4.78,4.78,0,0,1-.88.52c-.15.07-.29-.07-.44-.15a.81.81,0,0,1-.07-.37A.26.26,0,0,1,342.4,85.14Z"/><path class="cls-10" d="M379.32,81.2a14.4,14.4,0,0,1-1.1,2.43,20.52,20.52,0,0,0-1.55,2l-1.55,1.32a16.55,16.55,0,0,1-1.62.81c-.15,0-.37.07-.44,0a12.92,12.92,0,0,1-1.25-.44c-.29-.15-.52-.22-.59-.66l-.15-.07a2,2,0,0,1-.88-1.69c-.15-.22.15-.44.15-.81.44,0,.44.37.52.66a.6.6,0,0,0,.74.66,2.73,2.73,0,0,0,1.55-1.1,8.46,8.46,0,0,0,1.55-1.69,20,20,0,0,0,1.25-1.84v-.29c.07-.29.29-.52.29-.66A3.32,3.32,0,0,0,376.6,78a3.91,3.91,0,0,0-.37-1.32,1.32,1.32,0,0,0-1.55,0,6.06,6.06,0,0,0-1.55.81H373a3.15,3.15,0,0,1-.74.66,4.79,4.79,0,0,1-1.18,1,7,7,0,0,0-1.84,1.77,14.41,14.41,0,0,1-2.06,2.58,12.84,12.84,0,0,0-1.4,2.65h-.44a.29.29,0,0,1,.15.29,10.77,10.77,0,0,1-.74,1c-.15,0-.15.29-.22.44a.8.8,0,0,0,.44-.07c-.37.44-.29,1.18-1,1.18H364a.23.23,0,0,0,.15.07c-.15.52-.22.88-.37,1.33,0,.07-.22.07-.29.15.29.15.15.44,0,.81s.15.59-.37.66a2.41,2.41,0,0,1-.74,2.43c.15.07.22.07.29.15s-.15.07-.29.07c.15.07.15.07.22.07-.07.44,0,.81-.07,1.18a8.52,8.52,0,0,1-.59,1.91c-.15.59-.22,1-.37,1.47a.44.44,0,0,0,.07.29,2.18,2.18,0,0,1-.81.52.86.86,0,0,1,.44.59,5.41,5.41,0,0,0-.15.81,1.61,1.61,0,0,1-.44.07l.44.22a2.11,2.11,0,0,0-.59.52l.15.15a.76.76,0,0,0,.29.07,6.32,6.32,0,0,0-.66,2.87c0,.15-.15.29-.15.37A12.54,12.54,0,0,0,360,107c0,.22-.07.29-.22.59a1.4,1.4,0,0,1-.44,1.62l.29.15-.44,1.4a.9.9,0,0,1,.07.37c-.07.59-.37,1.4-.44,2.14a5.86,5.86,0,0,0-.07,1.62,1.86,1.86,0,0,1-.15.88,8.67,8.67,0,0,1-.29,1.32c0,.07-.07.15-.15.22s-.15-.07-.15-.07a3.15,3.15,0,0,0-.15.88,4.5,4.5,0,0,1-.74.22,4.25,4.25,0,0,1-1-.81,3,3,0,0,0,0-.81h-.29a4.5,4.5,0,0,0-.22.74,1.89,1.89,0,0,0-.66-.81c1.1-3.75,1.69-7.43,2.5-11.11.07,0,.15.07.29.07a1.26,1.26,0,0,1,.29-1.62,1.09,1.09,0,0,0-.44-.07,2.22,2.22,0,0,1,.29-.74.93.93,0,0,0,.15-1c-.15-.15.07-.44.15-.52a6.93,6.93,0,0,1,.52-1.1.72.72,0,0,1-.44.15,3.23,3.23,0,0,0,.81-2.28,2.47,2.47,0,0,0-.22.44v-.52c.29,0,.37-.29.52-.59l.44-2.35a5.06,5.06,0,0,0,.15-1,36.72,36.72,0,0,0,1.18-4.71c.22-1.1.52-2.13.81-3.31.15-.74.44-1.47.52-2.13.29-1.25.44-2.5.81-3.83.07-.74.29-1.47.44-2.28s.59-1.91.81-2.87a12.07,12.07,0,0,1,.74-1.84c.07-.52.22-.66.66-.59h.22c.66-.07,1,.37,1.18.81l.22,1a.89.89,0,0,1-.07.74,2.72,2.72,0,0,1-.15.66c-.29.15-.29.29-.07.59-.07.07-.07.22-.15.29-.15.66-.37,1.18-.52,2h-.15c-.07.74-.29,1-.44,2.72v.15a4.26,4.26,0,0,0-.37,1.25c.22-.37.66-.59.81-1.18,0-.07-.07-.15.15-.15s.15-.15.37-.29a.4.4,0,0,1-.37-.22,1,1,0,0,1,.59-.37c.15-.37.15-.81.74-.66a1,1,0,0,1,.07-.37c.52-.07.88-.66.81-.88a2.25,2.25,0,0,1,.52-.37v-.44H370c.15-.07.22-.07.22-.15-.07-.37.29-.37.44-.44a5.05,5.05,0,0,1,1.69-1.18,1.76,1.76,0,0,1,.88-.52v-.29a10.43,10.43,0,0,1-1.18.37,2.71,2.71,0,0,0-1.18.66,25.23,25.23,0,0,0-2.06,1.62h-.15a.07.07,0,0,1-.07-.07.83.83,0,0,0,.44-.44c.07-.07.29-.22.29-.29.07-.29.07-.37.22-.44.44-.29,1-.37,1.32-.74a10,10,0,0,1,1.18-.88,4.9,4.9,0,0,1,2.36-.52,10.66,10.66,0,0,1,1.62.29c.37.07.59.22,1.1.37.07,0,.15.07.22.29v.15a5,5,0,0,0-.52-.15l-.22.07a3.51,3.51,0,0,1,.81.44,3.86,3.86,0,0,0,.88.22l.07-.15a5.56,5.56,0,0,1,.88,1.1c.15,0,.15.07.07.22,0,.37.07.66.07,1A6,6,0,0,1,379.32,81.2Zm-21.86,28.63c.07-.29.81-.37.29-1,.22-.15.37-.22.22-.44a1.91,1.91,0,0,1,.22-1.4c.15-.07.22-.52.29-1.18l-.07-.15a.56.56,0,0,0,.15-.29v-.29c0-.22.22-.44.22-.52a.8.8,0,0,0-.37-.07c-.44,1.84-.81,3.46-1.1,5.23A.26.26,0,0,1,357.46,109.83Zm1.32-5.45c0-.22.07-.44.07-.66a1.5,1.5,0,0,1-.07-.37.57.57,0,0,1-.22.07c-.07.29-.07.59-.15,1Zm.22-2.06c.15-.15.22-.29.29-.37s-.07-.22-.37-.37c-.22.66-.22,1.18-.37,1.69C359.22,103,359,102.55,359,102.33Zm.22-.74c.07-.15.15-.15.29-.22l-.22-.15c.15-.44.29-.66.44-1a6.53,6.53,0,0,1,.44-1.47,6.31,6.31,0,0,1,.07-1.18,2.73,2.73,0,0,0,.29-1.1h-.22a3.51,3.51,0,0,1,.22-.52.45.45,0,0,0,.07-.29c0-.07,0-.22-.07-.22a3.34,3.34,0,0,1,.66-.22V95h-.59a3.73,3.73,0,0,0,.15-.66.67.67,0,0,1,.37.07,5.74,5.74,0,0,1-.15-1l.52-.22a.67.67,0,0,0-.37-.22c.22-.15.44-.22.44-.37a9.5,9.5,0,0,0,.29-1.84c.22-.52.22-.52-.22-.74,0,.22-.15.29-.15.44s.22,0,.29.07-.15.07-.37.22l.29.29c-.15,0-.29.15-.52.15v.44a3.68,3.68,0,0,0-.22,1c-.22.66-.29,1.47-.44,2.13a17.86,17.86,0,0,0-.74,2.65,5.74,5.74,0,0,0-.29,2.28l-.07.07a14.08,14.08,0,0,0-.44,1.55C359,101.37,359.08,101.44,359.22,101.59Zm.29,2.58c.07-.29.07-.59.15-1a1.72,1.72,0,0,0-.37,1.55A1.88,1.88,0,0,0,359.52,104.17Zm1.62-7.87a1.87,1.87,0,0,0-.22,1.47C360.84,97.25,361.51,96.73,361.14,96.29Zm.15,5.45c-.07,0-.15,0-.15-.07S361.21,101.74,361.29,101.74Zm.66-12c.15.07.22,0,.22-.07a7.68,7.68,0,0,0,.29-1.25l.22-1.25a1.7,1.7,0,0,1,.22-.66c-.15,0-.22,0-.15-.07a1.47,1.47,0,0,0-.44.66,2,2,0,0,0,.07.74c-.29,0-.22.22-.15.44-.22.29-.29.52-.44.66.15.29.15.37.15.44s-.15.07-.22.22S361.88,89.74,361.95,89.74Zm1-3.61c.07-.52.29-1.18.37-1.69h-.22a6.79,6.79,0,0,1-.29,1.18c0,.22,0,.44-.07.52Z"/><path class="cls-10" d="M404.27,44.33l.52.22c0,.22-.15.37-.22.59-.15-.07-.15-.22-.22-.29a.27.27,0,0,1-.22.07,3.47,3.47,0,0,1,.37.74c-.74,0-.52.66-.59,1s-.15.81-.29,1.1c.22.15.59.29.59.37a3.46,3.46,0,0,0-.44,1.25c.37.44-.37.74-.37,1.25a.26.26,0,0,0,.07-.15l.15.22c.15.22.15.37-.15.44s-.44.29-.66.59h.59a4.34,4.34,0,0,0-.88,1.25,5.22,5.22,0,0,1-.44.66c-.15.22,0,.44.07.59a2.8,2.8,0,0,1-.22,1.32.23.23,0,0,0-.15-.07c-.07-.15-.07-.22-.15-.29s-.15.29-.22.37l.22.15v.07c-.29-.07-.52-.07-.59.44,0,.15-.22.37-.29.52s-.15.15-.07.29c.07-.15.37-.37.52-.59.07.44-.15,1-.59,1.1-.07.07-.29,0-.37.07-.66,1.33-1.18,2.58-1.77,3.68a.46.46,0,0,1,0,.44,15.51,15.51,0,0,1-1.62,2.43c-.07.15-.22.52-.52.22-.07-.07-.22.07-.44.22a1.09,1.09,0,0,1,.52.07,14.69,14.69,0,0,0-1.18,1.77c-.15-.15-.22-.15-.29-.22l-.07.07a3.17,3.17,0,0,0,.07.37.66.66,0,0,0-.37.07h-.15c-.29.59-1.18.66-1,1.55a4.79,4.79,0,0,1-1,0c-.29.37.37.37.44.88-.15-.07-.22,0-.22,0-.37.29-.37.66-.59.88l-1.47,1.4a37.07,37.07,0,0,1-2.94,2.94,10,10,0,0,0-.88,2.94,28.89,28.89,0,0,0-.37,4.42,14.54,14.54,0,0,0,1,5.08,4.28,4.28,0,0,0,1.47,2c1.18.52,1.84,0,3-.81,1.18-.52.37,2.43-1.18,2.87a3.89,3.89,0,0,1-2.94-.29,4.25,4.25,0,0,1-1.1-.81c-.37-.44-.66-.88-1.1-1.4a9.81,9.81,0,0,1-.81-1.77,17.47,17.47,0,0,1-.52-2.28,20.68,20.68,0,0,1,0-5.23,34.79,34.79,0,0,1,.59-4.64l.44-2.43a3.3,3.3,0,0,1,.15-1c.22-.81.29-1.18.52-2.21a26.44,26.44,0,0,1,.74-2.8c.29-1.1.74-2.28,1-3.31.29-.52.52-1.18.81-1.77a4.7,4.7,0,0,1,.44-1.33c.07-.15.22-.22.22-.37l.37,1a9.83,9.83,0,0,1,.44-.88,12.41,12.41,0,0,1,.88-2.06c.07-.37.37-1,.29-1.18-.15-.52,0-.52.29-.59a.14.14,0,0,0,.15-.15c.29-.59.52-1.25.81-1.77-.37-.15-.59-.15-.74.29a3.47,3.47,0,0,0-.37.74A.68.68,0,0,0,391,55c-.15-.07-.29-.07-.29-.22a.74.74,0,0,0,.37-.29,3.92,3.92,0,0,0,.44-1,11.34,11.34,0,0,0,.52-1.69,3.87,3.87,0,0,0,.59-1.25c.07-.15.22-.15.29-.29.37.07.52.29.52.74s-.52.66-.81,1a1.64,1.64,0,0,0-.22.37.44.44,0,0,1,.29.07,2.58,2.58,0,0,0-.15.74c.66-1.47,1.32-2.65,2-4-.29.37-.29.37-1,.37-.15,0-.15.15-.22.15a1.85,1.85,0,0,1,.07-.59c.74-1.25,1.47-2.8,2.36-4.12a11.56,11.56,0,0,1,1.84-2.58c.66-.59,1.32-1.25,1.91-1.84.81-.81,1.69-.59,2.72-.29a9.82,9.82,0,0,1,.88.44,3.31,3.31,0,0,1,1,.74l.44.37a.22.22,0,0,1,0,.29,5.52,5.52,0,0,0,.22,1.32C404.12,43.52,404.49,44,404.27,44.33Zm-18.69,28c.15-.44.07-1,.22-1.4.44-1.47,1-3,1.47-4.71a6.07,6.07,0,0,1,.52-1.32,5,5,0,0,1,1.1-2.72,1.52,1.52,0,0,1-.37.07c.22-.29,0-.88.52-.74.07.07.15-.07.15-.07a2.31,2.31,0,0,1,.37-.74l-.52-.22a77.78,77.78,0,0,0-3.53,11.11C385.57,71.63,385.5,72.37,385.57,72.37Zm1.47-3a9.86,9.86,0,0,0-.66,2.72A13.24,13.24,0,0,0,387,69.35Zm2.5.74A7.83,7.83,0,0,0,391,68.47c1-.74,1.69-1.77,2.5-2.5l.66-.81c.29-.37.59-1,1-1.4.52-.88,1.1-1.77,1.69-2.65.29-.29.74-.37.66-1,.44-.15.59-.59.74-1,.29-.88.81-1.55,1.18-2.43.22-.29.29-.66.52-1a3.5,3.5,0,0,1,.37-.81,1.25,1.25,0,0,1-.44-.44,3.25,3.25,0,0,0,.59-.15,1.56,1.56,0,0,1-.29-.44c.22-.07.37,0,.66-.07a2,2,0,0,1-.44-.37,6.06,6.06,0,0,0,1-.52c0-.07,0-.07-.07-.15a1.1,1.1,0,0,1-.52-.07c.88-.74,1.32-1.91,1-2.36a3.31,3.31,0,0,0,.52-1.32c0-.52.07-.81.66-1l-.59-.22c.07-.07.07-.15.22-.22h.37c-.37-.29-.37-.52-.07-1a10.87,10.87,0,0,0,.07-1.62,3,3,0,0,0,0-.81c.29-.52.22-.59-.29-.66a7.49,7.49,0,0,0,.29,1.47c-.15.22-.29.37-.37.52a14.08,14.08,0,0,1-.22,1.62c-.15.44-.15,1-.59,1.32-.15.07,0,.29,0,.44s.07.22.15.37h-.15c-.15.15-.52.44-.52.59a1.27,1.27,0,0,1-.15.88c-.15.15-.15.37-.22.66a.89.89,0,0,1-.37.37c-.29.81-.59,1.47-.74,2.06a3.4,3.4,0,0,0-.74,2.28c-.22-.44-.22-.29-.37,0a1.24,1.24,0,0,1-.15.37c-.37.74-.81,1.47-1.18,2.13-.59,1-1.25,2.06-1.77,3a1.2,1.2,0,0,0-.37.66c-.22.22-.29.52-.52.66s-.15.15-.22.15a6.24,6.24,0,0,1-1,1.4c-.07.22-.52.74-.52.88a4.89,4.89,0,0,1-1,1.1,6,6,0,0,0-.81,1.25,16.73,16.73,0,0,0-1.91,2.06,8.31,8.31,0,0,1-.74,1A2.43,2.43,0,0,0,389.55,70.09Zm.52-12.59a17,17,0,0,1-.74,1.69C389,58.31,389.48,57.5,390.06,57.5Zm1,8.91c.88-1.1,1.91-2.43,2.72-3.61a13.19,13.19,0,0,0,1.55-2c.59-.88,1-1.77,1.62-2.72.66-1.47,1.32-2.72,2.06-4.27a28.26,28.26,0,0,0,1.4-3.61,16.89,16.89,0,0,0,1-3.9,31,31,0,0,0,.81-3.75.55.55,0,0,1-.29-.07l-.52.44a1.56,1.56,0,0,1-.29.44,10.09,10.09,0,0,0-1.84,2.13,9.74,9.74,0,0,0-1.69,2.58A11.41,11.41,0,0,1,396,50.66c-.37.74-.88,1.47-1.18,2.21a25.68,25.68,0,0,0-1,2.5,9.83,9.83,0,0,1-.44.88,15.29,15.29,0,0,0-.74,1.77,4,4,0,0,0-.44,1.32c-.15.44-.07.74-.22,1.1a21.58,21.58,0,0,1-1,2.43,24.21,24.21,0,0,1-1.18,3.24,9.6,9.6,0,0,0-.44.88c-.07.44,0,1-.07,1.4Zm4-18.92c.07,0,.15.29.22.44a.94.94,0,0,0-.44-.07v.66h.15c.15-.22.15-.44.29-.59s.37-.37.52-.59c.59-1,1.25-1.84,1.91-2.87a3,3,0,0,1,.52-1,.74.74,0,0,0-.07-.22,7.88,7.88,0,0,0-.74.88c-.29.66-.88,1.1-1.1,1.84-.07.15-.29.22-.44.37s-.15.15-.22.29a4.55,4.55,0,0,1-.59.59l-.52.29C394.7,47.57,394.92,47.42,395,47.49ZM398.09,62l-.66-.29c0-.07,0-.07.07-.07s.37-.07.66-.15V61.4l-.66-.22c-.37.59-.81,1.33-1.25,1.91C397,62.95,396.83,61.7,398.09,62Zm.29-1.77a8.39,8.39,0,0,0,.59-1c.22-.37.37-.81.59-1.18a6.1,6.1,0,0,0,.66-1.18,7.47,7.47,0,0,0,.59-1.1,2.76,2.76,0,0,0,.37-1v-.07c-1,1.84-2,3.75-2.87,5.59Z"/><path class="cls-10" d="M422.52,79.88c-.37.44-1,.74-1,1.47l-.29.15c.29.52-.29.59-.52.74s-.15.44-.44.59a.77.77,0,0,0,.44.22c-.29,0-.44.07-.59.07-.37,0-.52.29-.59.66a1,1,0,0,1-.88.81.8.8,0,0,0-.52.22c.15.15.15.22.15.29l-1,.66c0,.07,0,.07.07.15a1.86,1.86,0,0,1,.52-.29.07.07,0,0,0,.07.07,3.91,3.91,0,0,1-3.24,1.4c.15.15.15.22.29.37-.74-.15-1.18.59-1.77.22-.22-.07-.37,0-.59-.07a2.82,2.82,0,0,0-1-.29,3.47,3.47,0,0,0-.74-.37c-.29-.15-.66-.29-.66-.44a2,2,0,0,0-1.11-.81A2.13,2.13,0,0,1,408,84.22c-.15-.22-.29-.37-.37-.52a11.23,11.23,0,0,1-.66-1.32c.07-.15,0-.22-.15-.44l-1.1,1.1h-.07c0-.07.07-.15.07-.29s-1.25,1-1.47,1.32c-.07.15-.07.22-.15.22s-.29.29-.37.37a5.36,5.36,0,0,1-1.62,1.77,9.52,9.52,0,0,1-3,1.18,1.28,1.28,0,0,1-1.55-.88c-.07-.07-.07-.15-.07-.29a1.24,1.24,0,0,0-.15.37c.15.15-.15-.07-.29-.22a6.3,6.3,0,0,1-.81-1A4.05,4.05,0,0,1,396,82c.59-2.13,2.65-4.42,2.43-4.93-.74.22-1.33.29-1.55.07-.29-.52-.59-.88-.52-1.25a1.67,1.67,0,0,1,.66-.59,3.89,3.89,0,0,1,1.1-.59,3,3,0,0,1,1.62,0c.37.29,1,.44,1.18.81.59,1,.15,2.06-.66,3.9-.37.88-1.18,2.43-1.4,2.94s-.59,1.69,0,2.06a1.54,1.54,0,0,0,1.47-.22,9.77,9.77,0,0,0,2-1.62c.81-.74,1.4-1.47,2.21-2.28s1.4-1.62,2.13-2.35c.44-.44.81-1,1.25-1.4.07-.15.37-.22.44-.44.15.59.29.22.59.07a4.56,4.56,0,0,1,1-.07c0,.07.07.07.07.15l-.37.22c0,.07,0,.07-.07.15.52.15,1.1.15,1.69.29a.19.19,0,0,1-.22.22.07.07,0,0,1,.07.07c.52.07.59.29.44.74a3.76,3.76,0,0,0-.74,1.55,6.8,6.8,0,0,0-.44,4.34,2.19,2.19,0,0,0,.29.74c.81.81,2.8.29,4-.29a14.66,14.66,0,0,0,2.28-1.4c1.4-1,2.8-2,4.12-3.09l1-1c0-.07.15-.07.22-.07s.15.07.07.15l-1.25,1.33a.64.64,0,0,0,.74-.29C421.93,79.8,422.23,79.88,422.52,79.88Zm-22.23-2a3.81,3.81,0,0,0-1.4,2.21,1,1,0,0,0-.15.44c-.37.29-.37.29,0,.44C398.9,80.54,400,78.63,400.29,77.89ZM403.24,83c-.74.44-1.69,1-2.5,1.47C401.32,84.51,403.16,83.48,403.24,83Zm4.49-5.52c-.81,1-1.55,1.77-2.43,2.65C406.18,79.88,407.8,78,407.73,77.52Zm-.81,2.8c.44-.44.74-.81.44-1.25a3.08,3.08,0,0,1-.22.29,3.43,3.43,0,0,1-.37.74c0,.07-.15.07-.22.15V80a6,6,0,0,0-.74.66C406.33,80.69,406.62,80.69,406.92,80.32Zm9.79,3.53.66-.22c-.22-.15-.37-.29-.44-.29a1.6,1.6,0,0,1-.37.29C416.63,83.78,416.71,83.7,416.71,83.85Zm1.69-1.33c.59-.44,1.18-1,1.77-1.55,0,.07,0,.07.07.07a9,9,0,0,1-1.18,1.32l.52-.15.81-.59c.15-.15.37-.29.44-.44l-.15-.88-2.43,2.14C418.33,82.45,418.33,82.45,418.4,82.53Z"/><path class="cls-10" d="M432.68,73.69l-.15-.07-.07-.15a2,2,0,0,0-.81-.74l.07.15c.37.29.37.44.37.59v.07h-.22c-.22-.37-1-.59-1.84-.81h-.81c-.66.22-.66.07-1,.29a1.37,1.37,0,0,0-.52.44,1.22,1.22,0,0,0-.59.74,2.06,2.06,0,0,0,0,1.62,3.46,3.46,0,0,0,.37,1.77c0,.29.22.52.22.74s0,.29.15.37v.44l.29.52.15.37.22.66.37.29c-.07.15.15.22.22.37s.37.52.37.74a10.55,10.55,0,0,0,.52,1.4l.22.74a2.13,2.13,0,0,0,.22.81c.15.15.29.22.15.52s.22.22.22.37a6.8,6.8,0,0,1,0,2.72.84.84,0,0,1,0,.74c.29.29-.22.88-.29,1.32a2.21,2.21,0,0,1-.66,1.25,4.52,4.52,0,0,1-1.69,1.55,2,2,0,0,1-.66.07c0,.07.07.07.15.22l-.74.22a4,4,0,0,1-1.62,0c-.59-.15-1.18-.15-1.55-.29-.15-.15-.74-.15-1-.59a6,6,0,0,1-1.55-1.47,8.17,8.17,0,0,1-1.1-1.4,3.77,3.77,0,0,1-.59-2.06v-.07a.14.14,0,0,1,.15-.15l.07-1.32a8.64,8.64,0,0,1,1.91-1.77,4.49,4.49,0,0,1,1.32-.66v.07a7.09,7.09,0,0,0-2.72,3h.15c.07,0,.15-.07.29-.22a3,3,0,0,0,.44-.81A5.06,5.06,0,0,1,422.37,85l.74-.52.07.66-.88,1-.44,1a3.84,3.84,0,0,0,.22,2.43c.15.15.37.37.29.52,0,.66.44,1,1,1.55a2.31,2.31,0,0,0,1.4.29c1.4-.22,1.84-.44,2.43-1.25a3.44,3.44,0,0,0,.59-1.47,5.66,5.66,0,0,0,.07-1.91,4.89,4.89,0,0,0-.52-2.58l-1-2.65-.15-.22-.44-.88-.29-.44-.15-.37-.07-.29a10.31,10.31,0,0,0-.74-2,1.43,1.43,0,0,1-.22-1l-.29-.59c0-.29-.07-1.18.22-1.47.07-.52-.07-1.18.29-1.62a7.65,7.65,0,0,0,.88-1.25,2.55,2.55,0,0,1,.88-.52l.66-.37a6.77,6.77,0,0,1,1.91-.37,2.91,2.91,0,0,1,2.06.52C432.75,72.37,432.68,73.4,432.68,73.69Zm-6.92,4.49c.07.07.07,0,.15,0-.07-.29-.07-.66-.15-1.18-.07,0-.07,0-.15.22A2.34,2.34,0,0,0,425.76,78.18Zm1.55,3.75c.15-.52-1-2.5-1.55-2.8C426.13,80,426.79,81,427.3,81.94ZM427,78.7l.15.07.22-.37c-.15-.44-.37-.66-.52-1l-.07.15A6.63,6.63,0,0,1,427,78.7Zm.59,4a1.18,1.18,0,0,0-.22-.66C427.23,82.45,427.16,82.38,427.6,82.67Zm.07-3.24c-.37,0-.52.59-.22.88Zm1,2.5c0,.07.07.07.15.07a3.41,3.41,0,0,0-.74-1A1.08,1.08,0,0,0,428.7,81.94Zm2.72-9.42c.07,0,.22,0,.07-.07a3.13,3.13,0,0,0-1.1-.66c-.07,0-.07.07,0,.07C430.76,71.93,431.06,72.3,431.43,72.52Z"/><rect class="cls-11" x="346.97" y="126.27" width="85.71" height="2.6"/><rect class="cls-12" x="148.07" y="126.27" width="85.71" height="2.6"/><path class="cls-10" d="M261.73,122.33a3.7,3.7,0,0,0-.91-1,4.08,4.08,0,0,0-1.19-.61,4.39,4.39,0,0,0-1.36-.21A4.7,4.7,0,0,0,256,121a4.41,4.41,0,0,0-1.53,1.31,5.63,5.63,0,0,0-.88,1.84,7.91,7.91,0,0,0,0,4.19,5.62,5.62,0,0,0,.88,1.85,4.41,4.41,0,0,0,1.53,1.31,4.7,4.7,0,0,0,2.23.49,4,4,0,0,0,1.64-.33,3.9,3.9,0,0,0,1.26-.89,4.6,4.6,0,0,0,.86-1.32,5.53,5.53,0,0,0,.42-1.64h1.24a7,7,0,0,1-.57,2.17,5.33,5.33,0,0,1-1.13,1.64,4.81,4.81,0,0,1-1.64,1,5.73,5.73,0,0,1-2.09.37,6.16,6.16,0,0,1-2.69-.56,5.59,5.59,0,0,1-1.93-1.49,6.34,6.34,0,0,1-1.15-2.16,8.84,8.84,0,0,1,0-5.15,6.44,6.44,0,0,1,1.15-2.16,5.55,5.55,0,0,1,1.93-1.5,6.54,6.54,0,0,1,4.51-.28,5.26,5.26,0,0,1,1.61.81,4.76,4.76,0,0,1,1.21,1.32,4.46,4.46,0,0,1,.61,1.81h-1.24A4.18,4.18,0,0,0,261.73,122.33Z"/><path class="cls-10" d="M271.26,123.47a4.17,4.17,0,0,1,1.4,1.08,4.68,4.68,0,0,1,.86,1.58,6.5,6.5,0,0,1,0,3.86,4.67,4.67,0,0,1-.86,1.58,4.06,4.06,0,0,1-1.4,1.07,4.84,4.84,0,0,1-3.82,0,4.06,4.06,0,0,1-1.4-1.07,4.67,4.67,0,0,1-.86-1.58,6.5,6.5,0,0,1,0-3.86,4.68,4.68,0,0,1,.86-1.58,4.17,4.17,0,0,1,1.4-1.08,4.74,4.74,0,0,1,3.82,0Zm-3.35.91a3.17,3.17,0,0,0-1,.91,4.15,4.15,0,0,0-.62,1.29,5.26,5.26,0,0,0,0,2.94,4.14,4.14,0,0,0,.62,1.29,3.16,3.16,0,0,0,1,.91,3.17,3.17,0,0,0,2.89,0,3.16,3.16,0,0,0,1-.91,4.14,4.14,0,0,0,.62-1.29,5.25,5.25,0,0,0,0-2.94,4.15,4.15,0,0,0-.62-1.29,3.17,3.17,0,0,0-1-.91,3.17,3.17,0,0,0-2.89,0Z"/><path class="cls-10" d="M275.77,124.8a2.7,2.7,0,0,1,.79-1,3.38,3.38,0,0,1,1.18-.57,5.75,5.75,0,0,1,1.5-.18,6.62,6.62,0,0,1,1.24.12,3,3,0,0,1,1.11.45,2.44,2.44,0,0,1,.8.92,3.33,3.33,0,0,1,.31,1.54v5a.61.61,0,0,0,.68.69.88.88,0,0,0,.37-.07v1l-.36.05-.39,0a1.73,1.73,0,0,1-.7-.12.94.94,0,0,1-.41-.34,1.26,1.26,0,0,1-.19-.52,4.45,4.45,0,0,1,0-.67h0a7.79,7.79,0,0,1-.63.81,3.14,3.14,0,0,1-.71.59,3.29,3.29,0,0,1-.9.37,4.92,4.92,0,0,1-1.2.13,4.71,4.71,0,0,1-1.23-.16,2.76,2.76,0,0,1-1-.49,2.35,2.35,0,0,1-.68-.86,2.86,2.86,0,0,1-.25-1.23,2.44,2.44,0,0,1,.44-1.54,2.77,2.77,0,0,1,1.16-.85,6.63,6.63,0,0,1,1.63-.41l1.84-.23q.37,0,.64-.09a1.11,1.11,0,0,0,.46-.19.89.89,0,0,0,.28-.37,1.62,1.62,0,0,0,.1-.62,2.1,2.1,0,0,0-.19-1,1.52,1.52,0,0,0-.53-.59,2.13,2.13,0,0,0-.79-.3,5.28,5.28,0,0,0-1-.08,2.9,2.9,0,0,0-1.79.52,2,2,0,0,0-.73,1.67h-1.15A3.83,3.83,0,0,1,275.77,124.8Zm5.75,2.81a.66.66,0,0,1-.42.29,4.16,4.16,0,0,1-.55.13q-.73.13-1.51.23a8.26,8.26,0,0,0-1.42.3,2.78,2.78,0,0,0-1.05.58,1.37,1.37,0,0,0-.41,1.07,1.68,1.68,0,0,0,.17.78,1.87,1.87,0,0,0,.47.58,2,2,0,0,0,.68.37,2.45,2.45,0,0,0,.79.13,4,4,0,0,0,1.26-.2,3.1,3.1,0,0,0,1.05-.58,2.78,2.78,0,0,0,1-2.17v-1.5Z"/><path class="cls-10" d="M290.79,124.64A2.51,2.51,0,0,0,289,124a2.91,2.91,0,0,0-1.44.35,3.17,3.17,0,0,0-1,.91,4.15,4.15,0,0,0-.62,1.29,5.26,5.26,0,0,0,0,2.94,4.14,4.14,0,0,0,.62,1.29,3.16,3.16,0,0,0,1,.91,2.9,2.9,0,0,0,1.44.35,2.55,2.55,0,0,0,1-.2,2.69,2.69,0,0,0,.84-.56,3,3,0,0,0,.6-.85,3.13,3.13,0,0,0,.29-1.08h1.15a4.35,4.35,0,0,1-1.26,2.68,3.69,3.69,0,0,1-2.63,1,4.42,4.42,0,0,1-1.91-.39,4.06,4.06,0,0,1-1.4-1.07,4.67,4.67,0,0,1-.86-1.58,6.5,6.5,0,0,1,0-3.86,4.68,4.68,0,0,1,.86-1.58,4.17,4.17,0,0,1,1.4-1.08,4.34,4.34,0,0,1,1.91-.4,4.1,4.1,0,0,1,2.57.8,3.43,3.43,0,0,1,1.25,2.43h-1.15A3.17,3.17,0,0,0,290.79,124.64Z"/><path class="cls-10" d="M295.63,119.72V125h0a2.77,2.77,0,0,1,1.17-1.38,3.44,3.44,0,0,1,1.85-.52,4.66,4.66,0,0,1,1.65.26,2.62,2.62,0,0,1,1.07.72,2.69,2.69,0,0,1,.57,1.14,6.42,6.42,0,0,1,.16,1.52v6.07H301v-5.88a5.46,5.46,0,0,0-.11-1.12,2.38,2.38,0,0,0-.38-.9,1.87,1.87,0,0,0-.74-.6,2.72,2.72,0,0,0-1.16-.22,2.94,2.94,0,0,0-1.23.25,2.68,2.68,0,0,0-.91.68,3.13,3.13,0,0,0-.58,1,4.18,4.18,0,0,0-.23,1.29v5.5h-1.15v-13Z"/><path class="cls-10" d="M305.47,119.72v1.85h-1.15v-1.85Zm0,3.62v9.43h-1.15v-9.43Z"/><path class="cls-10" d="M308.82,123.34V125h0a2.77,2.77,0,0,1,1.17-1.38,3.44,3.44,0,0,1,1.85-.52,4.66,4.66,0,0,1,1.65.26,2.62,2.62,0,0,1,1.07.72,2.69,2.69,0,0,1,.57,1.14,6.42,6.42,0,0,1,.16,1.52v6.07h-1.15v-5.88a5.46,5.46,0,0,0-.11-1.12,2.38,2.38,0,0,0-.38-.9,1.87,1.87,0,0,0-.74-.6,2.72,2.72,0,0,0-1.16-.22,2.94,2.94,0,0,0-1.23.25,2.68,2.68,0,0,0-.91.68,3.13,3.13,0,0,0-.58,1,4.18,4.18,0,0,0-.23,1.29v5.5h-1.15v-9.43Z"/><path class="cls-10" d="M325.23,133.88a3.67,3.67,0,0,1-.72,1.42,3.15,3.15,0,0,1-1.29.9,5.38,5.38,0,0,1-1.95.31,5.85,5.85,0,0,1-1.39-.16,4,4,0,0,1-1.21-.51,3,3,0,0,1-.89-.89,2.64,2.64,0,0,1-.41-1.29h1.15a2.05,2.05,0,0,0,.36.89,2.13,2.13,0,0,0,.64.58,2.84,2.84,0,0,0,.83.32,4.31,4.31,0,0,0,.93.1,2.76,2.76,0,0,0,2.32-.91,4.2,4.2,0,0,0,.71-2.63v-1.28h0a3.36,3.36,0,0,1-1.18,1.41,3.14,3.14,0,0,1-1.82.53,4.56,4.56,0,0,1-1.94-.37,3.6,3.6,0,0,1-1.32-1,4.21,4.21,0,0,1-.76-1.54,7.25,7.25,0,0,1-.24-1.89,5.89,5.89,0,0,1,.28-1.84,4.58,4.58,0,0,1,.82-1.52,3.84,3.84,0,0,1,1.33-1,4.23,4.23,0,0,1,1.82-.37,3.33,3.33,0,0,1,1,.15,3.17,3.17,0,0,1,.85.41,3.63,3.63,0,0,1,.69.61,2.8,2.8,0,0,1,.47.73h0v-1.63h1.15V132A7.19,7.19,0,0,1,325.23,133.88Zm-2.64-2.51a3,3,0,0,0,.95-.84,3.69,3.69,0,0,0,.58-1.2,5,5,0,0,0,.19-1.39,6,6,0,0,0-.16-1.39,4,4,0,0,0-.53-1.26,2.88,2.88,0,0,0-.94-.91,2.66,2.66,0,0,0-1.4-.35,2.76,2.76,0,0,0-1.41.34,3,3,0,0,0-1,.89,3.71,3.71,0,0,0-.56,1.25,6,6,0,0,0-.17,1.43,5.27,5.27,0,0,0,.18,1.39,3.54,3.54,0,0,0,.57,1.2,2.94,2.94,0,0,0,1,.84,2.85,2.85,0,0,0,1.39.32A2.63,2.63,0,0,0,322.59,131.37Z"/></svg>