<svg xmlns="http://www.w3.org/2000/svg" xmlns:xlink="http://www.w3.org/1999/xlink" viewBox="0 0 424 408">
<defs>
<style>
.cls-10{
    fill:#410a54;
}
</style>
</defs>
<title>Un pas de plus</title>
<g id="Texte">
<path class="cls-10" d="M91.17,302.41a18.16,18.16,0,0,1-3.41-7.5,25.53,25.53,0,0,1-.26-8.44,6.49,6.49,0,0,0,.08-1.19c-.26-1.19.43-2.22.51-3.15.09-.26.34-.6.34-.85a15.85,15.85,0,0,1,.6-2.9A2.39,2.39,0,0,0,89,277c-1,.51-1.11,1.45-1.53,2-.85,1.28-1.79,2.64-2.64,3.66-.34.68-1.19.77-1.19,1.87a38.45,38.45,0,0,1-2.9,3.75c-.26.08-.51.43-.68.51a25.13,25.13,0,0,1-1.7,2.22c-.34.51-.68,1.11-1.11,1.7l-.26.6a61.34,61.34,0,0,1-4.26,4.77,32.4,32.4,0,0,1-4.43,3.92,12.07,12.07,0,0,1-5.37,1.7,3.15,3.15,0,0,1-1.45-.43,4.77,4.77,0,0,1-1.36-.6c-3.07-2.56-2.81-4.77-.85-11.68.43-1.62,1.19-3.24,1.62-4.69,1.53-4.26,2.39-7.16,3.58-10.82.77-2.3,1.36-4.43,1.88-6.65.6-2.73,1.28-5.54,1.79-8.44a9.24,9.24,0,0,0,.09-1.62c-.09-1.28-.77-1.62-2-1l-3.07,1.79A15.24,15.24,0,0,0,59,263.8a32,32,0,0,0-2.3,3.58,24.18,24.18,0,0,0-2.22,5.54,7.84,7.84,0,0,0-.51,2.81c-.17.26,0,.6-.17.94-.08,1-.68,1.36-1.53.85a3.48,3.48,0,0,1-1.45-4.35A26,26,0,0,1,52,269.85a27.75,27.75,0,0,1,2.73-4.94,21.53,21.53,0,0,1,10.91-9.29,4.23,4.23,0,0,1,2.9,0c3.41,0,4.18,1.36,4.09,3.66-.17,2-2.9,12.61-3.84,15.51-.43,1.79-1.19,3.66-1.79,5.37-.68,2-1.36,3.92-2,5.8-1,3.07-1.87,6.22-2.64,9.29a11.22,11.22,0,0,0-.34,2,4.12,4.12,0,0,0,.43,2.81,1.54,1.54,0,0,0,1.62.94,4.49,4.49,0,0,0,2.39-.85A21,21,0,0,0,71.31,296c.85-1,1.87-2,2.73-2.9l.6-.68c2-2.64,3.24-4.35,5-6.56a37.49,37.49,0,0,1,3-3.66,21.22,21.22,0,0,0,1.53-2c.85-1.19,1.79-2.3,2.47-3.49A19.79,19.79,0,0,0,89,272.92c1.79-3.41,4.18-6.39,5.71-10.06a63.3,63.3,0,0,1,3.92-7.5c.51-.77,1.11-1.53,1.7-2.3a1.37,1.37,0,0,1,1.53-.34c.51.26,1.87-.17,2.3,1.11a9.3,9.3,0,0,1-1.36,3,26.55,26.55,0,0,1-2.3,3.66c-1.62,2.3-2.39,4.86-3.75,7.33-1.53,2.73-1.7,3.75-3.07,7.41-.6,2.81-.94,5.2-1.45,8a13.22,13.22,0,0,0-.26,2.64c-.17.94,0,2-.26,3.24-.6,4,.51,7.93,2,11.59a13.05,13.05,0,0,0,5.2,5.11c.68.34,2.13,1.19-1.28.85A10.53,10.53,0,0,1,91.17,302.41Zm-31-9.29c-.51,1.36-1.36,2.56-.94,4.09C59.3,295.84,60.66,294.74,60.15,293.12Zm.68-2.64A3.65,3.65,0,0,0,62,287.24a2.89,2.89,0,0,0,.85-2.3,4.76,4.76,0,0,0-.85,2.3,8.23,8.23,0,0,0-1.19,3.24,2.55,2.55,0,0,0-.51,1.7A1.25,1.25,0,0,0,60.83,290.47Zm3.41-8.35c.43-1.7.94-3.32,1.45-4.94a4.1,4.1,0,0,0,0-1c0,.17-.09.26-.26.34-.6,2-1.62,3.92-1.7,6.22C63.81,282.46,64.24,282.38,64.24,282.12Zm2.64-10a7.26,7.26,0,0,1,.51-1.45c-.26,0-.26-.17-.34-.17a11,11,0,0,0-.34,1.62Zm8.35,21.73a.62.62,0,0,0,.68-.68,2.57,2.57,0,0,1-.68.68c-.6.43-1.28.94-1.28,1.62C74.72,295.25,75,294.65,75.23,293.88Zm7.5-9.2a11.83,11.83,0,0,0-.51,1.11C82.56,285.45,83,285.19,82.73,284.68Zm6.05,7.93c.34-2.3.51-4.35.68-6.65a25.05,25.05,0,0,0,.43-4.35c-.17.17-.51.43-.6.68a21.76,21.76,0,0,0-.85,9.89A1.83,1.83,0,0,0,88.79,292.61Zm5.88-26.16a3.91,3.91,0,0,0-1.11,2.22A7.68,7.68,0,0,0,94.67,266.44Zm2.81-5.37c.17-.09.17-.34.34-.85A6.65,6.65,0,0,0,96,263.63,13,13,0,0,0,97.48,261.07Z"/>
<path class="cls-10" d="M103.18,294.48c-.08-.17-.08-.34-.17-.43-.6.09,0,.6-.26.77a1.42,1.42,0,0,1-.85-1.62c.26-1.45.43-2.81.77-4.35s.94-3,1.28-4.52c.26-1,.34-2,.51-3,0-.08,0-.26-.08-.26-.26-.26-.17-.77-.09-1.28s.26-.77.77-.68a3,3,0,0,1,2.3,1.62c.09.09.09.09.09.17l-.26,2a13.8,13.8,0,0,1-.34,1.62c-.17.6-.26,1.19-.43,1.79a.65.65,0,0,1-.08.34c.08-.09.08,0,.08-.09a23,23,0,0,1,2.81-3.49,11.45,11.45,0,0,1,1.79-1.7,2.41,2.41,0,0,1,1.36-.34,2.63,2.63,0,0,1,1.11.17c.26,0,.43.17.68.43-.26,0-.51.08-.68.08v.09c.68.09,1,.77,1.79.26.08.43,0,.85.34,1,.08,0,0,.26,0,.51a11.15,11.15,0,0,1,.51,2.3,16.61,16.61,0,0,1-.17,2,1.82,1.82,0,0,1,0,.68,13.85,13.85,0,0,1,.08,1.87l.26.85c0,.17.26.43.34.51h.26c.08-.09.34-.17,1.79-.94a4.75,4.75,0,0,0,1.45-.77,8.41,8.41,0,0,0,1.45-.94,1.31,1.31,0,0,0,.51-.34,7,7,0,0,1,1.28-.94c-.17-.09-.26-.09-.17-.17a19.7,19.7,0,0,0-1.62,1.19c-.08-.09-.08-.09-.17-.09a46.16,46.16,0,0,0,7.93-8.44s.09,0,0,.09-.34.43-.43.6-.43.51-.17.77a.26.26,0,0,1-.09.17c-.34.09-.34.09-.6.51h.43a4.52,4.52,0,0,0-.77.94l-.08,1.11h.08c-.17.43-.17.77-.34,1.11a3.23,3.23,0,0,1-.85,1l-1.45,1.7a1.08,1.08,0,0,1-.51.68.42.42,0,0,0,.08.26c-.08.09-.34.09-.34.17a7.89,7.89,0,0,1-1.62,1.79,10.32,10.32,0,0,1-2,1.7c-1.19.85-2.64.85-3.92,1.11h-.09c-.6-.26-.85-.26-1.28-.77a4.93,4.93,0,0,1-1.79-2.47A12.71,12.71,0,0,1,113,286c0-.43.09-1,.09-1.53-.17-.17-.34-.26-.43-.51-.26.94-.6,1.19-1.19,1.28a1.93,1.93,0,0,1-1.19,1.36c.09.68-.51.77-.77,1.19-.09.26-.6.68-.43.68.26.6-.51.26-.43.6a.31.31,0,0,1-.26-.09c.08.51-.34.77-.68.94.08.08.17.17.17.26s-.17.17-.17.17l.26.26a25.05,25.05,0,0,0-1.45,2.56,1.45,1.45,0,0,1-1.11.68l-.26.6c-.17.08-.17.17-.26.26-.34.68-.68.77-1.36.6C103,295.16,103.1,294.82,103.18,294.48Zm4.52-8.86.77-.94c.09,0,0,.09,0,.09a1.38,1.38,0,0,1-.34.6l.09.09c.34-.17.51-.34.85-.51-.09-.17-.17-.17-.26-.26.17-.09.26-.09.26-.17.17-.26.43-.68.85-.51.09,0,.17-.17.17-.17-.17-.51.17-.68.43-.94.08.08.26.17.26.08a2.8,2.8,0,0,1,.51-.51c-.6-.09-1-.09-1.36.26l-1,1.11-1.28,1.62S107.7,285.45,107.7,285.62Zm2,.26c.26-.43.85-.26.85-.94h.26c0-.34-.17-.43-.26-.6-.09.26-.77.26-.43.85a1.76,1.76,0,0,1-.51.17A.92.92,0,0,0,109.66,285.87Zm14.23,2.22a.18.18,0,0,0,.17-.17,5.81,5.81,0,0,0,1-1,3,3,0,0,0,.68-.77.3.3,0,0,0-.17-.09c-.68.68-1.28,1.28-1.87,2C123.81,288.09,123.81,288.09,123.89,288.09Z"/>
<path class="cls-10" d="M160.45,286.55a16.72,16.72,0,0,1-1.28,2.81,23.86,23.86,0,0,0-1.79,2.3l-1.79,1.53a19.17,19.17,0,0,1-1.87.94c-.17,0-.43.08-.51,0a15.06,15.06,0,0,1-1.45-.51c-.34-.17-.6-.26-.68-.77l-.17-.09a2.27,2.27,0,0,1-1-2c-.17-.26.17-.51.17-.94.51,0,.51.43.6.77a.69.69,0,0,0,.85.77,3.16,3.16,0,0,0,1.79-1.28,9.78,9.78,0,0,0,1.79-2,23,23,0,0,0,1.45-2.13v-.34c.09-.34.34-.6.34-.77a3.84,3.84,0,0,0,.43-2.13,4.54,4.54,0,0,0-.43-1.53,1.53,1.53,0,0,0-1.79,0,7,7,0,0,0-1.79.94h-.17a3.66,3.66,0,0,1-.85.77,5.55,5.55,0,0,1-1.36,1.11,8.1,8.1,0,0,0-2.13,2,16.69,16.69,0,0,1-2.39,3,14.87,14.87,0,0,0-1.62,3.07h-.51a.34.34,0,0,1,.17.34,12.47,12.47,0,0,1-.85,1.11c-.17,0-.17.34-.26.51a.92.92,0,0,0,.51-.09c-.43.51-.34,1.36-1.19,1.36h.08a.27.27,0,0,0,.17.08c-.17.6-.26,1-.43,1.53,0,.08-.26.08-.34.17.34.17.17.51,0,.94-.08.26.17.68-.43.77.26,1.19-.26,2.56-.85,2.81.17.09.26.09.34.17-.08,0-.17.09-.34.09.17.09.17.09.26.09-.09.51,0,.94-.09,1.36a9.8,9.8,0,0,1-.68,2.22c-.17.68-.26,1.19-.43,1.7a.51.51,0,0,0,.08.34,2.51,2.51,0,0,1-.94.6,1,1,0,0,1,.51.68,6.48,6.48,0,0,0-.17.94,1.85,1.85,0,0,1-.51.09l.51.26a2.45,2.45,0,0,0-.68.6l.17.17a.88.88,0,0,0,.34.09,7.33,7.33,0,0,0-.77,3.32c0,.17-.17.34-.17.43a14.22,14.22,0,0,0-.26,1.53c0,.26-.09.34-.26.68a1.62,1.62,0,0,1-.51,1.87l.34.17-.51,1.62a1,1,0,0,1,.08.43c-.08.68-.43,1.62-.51,2.47a6.77,6.77,0,0,0-.08,1.87,2.17,2.17,0,0,1-.17,1,10,10,0,0,1-.34,1.53c0,.09-.09.17-.17.26,0-.09-.17-.09-.17-.09a3.67,3.67,0,0,0-.17,1,5.18,5.18,0,0,1-.85.26,5,5,0,0,1-1.11-.94,3.38,3.38,0,0,0,0-.94h-.34a5.33,5.33,0,0,0-.26.85,2.18,2.18,0,0,0-.77-.94c1.28-4.35,2-8.61,2.9-12.87.08,0,.17.08.34.08a1.46,1.46,0,0,1,.34-1.87,1.26,1.26,0,0,0-.51-.09,2.54,2.54,0,0,1,.34-.85,1.07,1.07,0,0,0,.17-1.11c-.17-.17.08-.51.17-.6a8,8,0,0,1,.6-1.28.84.84,0,0,1-.51.17,3.73,3.73,0,0,0,.94-2.64,2.79,2.79,0,0,0-.26.51v-.6c.34,0,.43-.34.6-.68l.51-2.73a5.9,5.9,0,0,0,.17-1.11,42.51,42.51,0,0,0,1.36-5.45c.26-1.28.6-2.47.94-3.84.17-.85.51-1.7.6-2.47.34-1.45.51-2.9.94-4.43.08-.85.34-1.7.51-2.64.34-1.11.68-2.22.94-3.32a13.91,13.91,0,0,1,.85-2.13c.09-.6.26-.77.77-.68h.26c.77-.09,1.11.43,1.36.94l.26,1.11a1,1,0,0,1-.08.85,3.17,3.17,0,0,1-.17.77c-.34.17-.34.34-.09.68-.08.08-.08.26-.17.34-.17.77-.43,1.36-.6,2.3h-.17c-.09.85-.34,1.19-.51,3.15v.17a4.9,4.9,0,0,0-.43,1.45c.26-.43.77-.68.94-1.36,0-.09-.09-.17.17-.17.08,0,.17-.17.43-.34a.46.46,0,0,1-.43-.26,1.17,1.17,0,0,1,.68-.43c.17-.43.17-.94.85-.77a1.14,1.14,0,0,1,.09-.43c.6-.08,1-.77.94-1a2.61,2.61,0,0,1,.6-.43V283h.85c.17-.08.26-.08.26-.17-.08-.43.34-.43.51-.51a5.85,5.85,0,0,1,2-1.36,2,2,0,0,1,1-.6V280a12.08,12.08,0,0,1-1.36.43,3.13,3.13,0,0,0-1.36.77,29.15,29.15,0,0,0-2.39,1.87h-.17a.08.08,0,0,1-.08-.09,1,1,0,0,0,.51-.51c.08-.09.34-.26.34-.34.08-.34.08-.43.26-.51.51-.34,1.19-.43,1.53-.85a11.48,11.48,0,0,1,1.36-1,5.67,5.67,0,0,1,2.73-.6,12.32,12.32,0,0,1,1.87.34c.43.09.68.26,1.28.43.09,0,.17.09.26.34v.17a5.73,5.73,0,0,0-.6-.17l-.26.09a4,4,0,0,1,.94.51,4.48,4.48,0,0,0,1,.26l.08-.17a6.46,6.46,0,0,1,1,1.28c.17,0,.17.08.08.26,0,.43.09.77.09,1.11C160.62,284.51,160.88,285.7,160.45,286.55Zm-25.31,33.15c.08-.34.94-.43.34-1.11.26-.17.43-.26.26-.51a2.21,2.21,0,0,1,.26-1.62c.17-.09.26-.6.34-1.36l-.08-.17a.65.65,0,0,0,.17-.34v-.34c0-.26.26-.51.26-.6a.92.92,0,0,0-.43-.09c-.51,2.13-.94,4-1.28,6.05A.3.3,0,0,1,135.14,319.71Zm1.53-6.31c0-.26.09-.51.09-.77a1.74,1.74,0,0,1-.09-.43.66.66,0,0,1-.26.09c-.09.34-.09.68-.17,1.11Zm.26-2.39c.17-.17.26-.34.34-.43-.08-.08-.08-.26-.43-.43-.26.77-.26,1.36-.43,2C137.18,311.78,136.93,311.27,136.93,311Zm.26-.85c.08-.17.17-.17.34-.26l-.26-.17c.17-.51.34-.77.51-1.19a7.63,7.63,0,0,1,.51-1.7,7.31,7.31,0,0,1,.09-1.36,3.17,3.17,0,0,0,.34-1.28h-.26a4.2,4.2,0,0,1,.26-.6.51.51,0,0,0,.09-.34c0-.09,0-.26-.09-.26a3.89,3.89,0,0,1,.77-.26v-.17h-.68a4.36,4.36,0,0,0,.17-.77.77.77,0,0,1,.43.08,6.7,6.7,0,0,1-.17-1.19l.6-.26a.77.77,0,0,0-.43-.26c.26-.17.51-.26.51-.43a11,11,0,0,0,.34-2.13c.26-.6.26-.6-.26-.85,0,.26-.17.34-.17.51.17,0,.26,0,.34.08-.08.09-.17.09-.43.26l.34.34c-.17,0-.34.17-.6.17v.51a4.22,4.22,0,0,0-.26,1.11c-.26.77-.34,1.7-.51,2.47a20.61,20.61,0,0,0-.85,3.07,6.63,6.63,0,0,0-.34,2.64l-.09.08a16.34,16.34,0,0,0-.51,1.79C136.93,309.91,137,310,137.18,310.16Zm.34,3c.08-.34.08-.68.17-1.11a2,2,0,0,0-.43,1.79A2.23,2.23,0,0,0,137.53,313.14ZM139.4,304a2.16,2.16,0,0,0-.26,1.7C139.06,305.13,139.83,304.54,139.4,304Zm.17,6.31c-.08,0-.17,0-.17-.09S139.49,310.33,139.57,310.33Zm.77-13.89c.17.09.26,0,.26-.08a9,9,0,0,0,.34-1.45l.26-1.45a2,2,0,0,1,.26-.77c-.17,0-.26,0-.17-.09a1.69,1.69,0,0,0-.51.77,2.38,2.38,0,0,0,.08.85c-.34,0-.26.26-.17.51-.26.34-.34.6-.51.77a1,1,0,0,1,.17.51c-.08,0-.17.08-.26.26C140.17,296.36,140.25,296.44,140.34,296.44Zm1.19-4.18c.08-.6.34-1.36.43-2h-.26a8,8,0,0,1-.34,1.36c0,.26,0,.51-.08.6Z"/><path class="cls-10" d="M166.84,291.92a7.8,7.8,0,0,0-1.36-.85,3.76,3.76,0,0,1-.68-3.41c.26-.6.43-1,.6-1.53.08-.09.08-.09.08-.17.09-.51.34-.94.51-1.53l.6-1c.34-.43.51-.85.68-1a45,45,0,0,1,3.07-3.75,6.83,6.83,0,0,1,4.09-2.3c1.79.34,3.84.68,4.18,2.64.26,1.19-.43,2-.85,2.81.68-.09,1.28-.77,2.3-.68a1.63,1.63,0,0,1,1,1.19,4.36,4.36,0,0,1-.17,1.62c-.08.09-.08.26-.17.43A6,6,0,0,0,181,288a1.58,1.58,0,0,0,.77.94.73.73,0,0,0,.6,0,5.3,5.3,0,0,0,.94-.26,23.38,23.38,0,0,0,3.92-2.47c1.11-.68,2.39-1.45,3.58-2.3,2-1.28,1.87-1.11,3.84-2.39a15.37,15.37,0,0,1,2.13-1.45l.26.17-.77,1c.17.43.17.43.68.08,0-.17,0-.51.43-.34a11.17,11.17,0,0,1-3.32,2.73,12.57,12.57,0,0,1-1.28.77,3.42,3.42,0,0,1-1,.85c-.09.09-.34.09-.6.17a.26.26,0,0,0-.08-.17,1.31,1.31,0,0,0,.51-.34.65.65,0,0,0,.43-.77c0-.08-.17-.17-.26-.17a12.27,12.27,0,0,0-1.7,1.19,10.5,10.5,0,0,0-2.64,1.62,8,8,0,0,1-.85.43v.17c.26-.08.51-.08.68-.26a.66.66,0,0,1,.85-.09c0-.08-.09-.17-.09-.26.6-.26,1-.17,1.53-.6a10.86,10.86,0,0,0,1.45-.85.74.74,0,0,1-.34.6c-.68.34-1.36.85-2,1.19a1.45,1.45,0,0,0-.51.51,1.36,1.36,0,0,1-.6.34,1.66,1.66,0,0,0,.6.09l-.09.09a1.23,1.23,0,0,1-.6.17v.34c.43-.26,1-.51,1.45-.77v.17a8.58,8.58,0,0,0-1.36,1.11,10.84,10.84,0,0,1-2.3,1.53c-.51.26-.77.17-1.19.43a2.52,2.52,0,0,1-.85.26,5.42,5.42,0,0,1-.77.17,8.24,8.24,0,0,1-1.45.09c-.17-.09-.68-.09-.85-.26s-.43-.43-.68-.51c-.51-.68-1.11-1-1.45-1.79-.51-.51-.43-.68-.68-1.11-.17-.08-.17-.26-.26-.43-.6.34-.6,1.19-1.19,1.19-.17.17-.26.43-.43.51a20.39,20.39,0,0,1-3.75,2.47,4.92,4.92,0,0,1-4.09.17A2.11,2.11,0,0,1,166.84,291.92Zm3.84-2.81a6.76,6.76,0,0,0,2.73-2c1.28-1.36,1.87-2.39,3.15-3.75.09,0,.43-.43.43-.43h-.09c-1.87-.17-1.19-3.92-1.11-4-2.56.43-5.54,4.43-6.48,6.05a18.09,18.09,0,0,0-2,4.52A10.79,10.79,0,0,0,170.67,289.11Zm22-4.77c.08,0,.17-.26.17-.34a.49.49,0,0,1,.34-.51c.08-.17.43-.26.68-.34s.51-.09.68-.17v-.51c.17-.09.26-.26.34-.34s0-.17-.08-.17a7,7,0,0,1-1,.68,9.94,9.94,0,0,0-1.79,1.28A3,3,0,0,1,192.66,284.34Z"/>
<path class="cls-10" d="M203.65,277.86l-.17-.08-.08-.17a2.26,2.26,0,0,0-.94-.85l.08.17c.43.34.43.51.43.68v.09h-.26c-.26-.43-1.11-.68-2.13-.94h-.94c-.77.26-.77.08-1.11.34a1.59,1.59,0,0,0-.6.51,1.41,1.41,0,0,0-.68.85,2.38,2.38,0,0,0,0,1.88,4,4,0,0,0,.43,2c0,.34.26.6.26.85s0,.34.17.43v.51l.34.6.17.43.26.77.43.34c-.08.17.17.26.26.43-.09.26.43.6.43.85a12.46,12.46,0,0,0,.6,1.62l.26.85a2.47,2.47,0,0,0,.26.94c.17.17.34.26.17.6,0,.17.26.26.26.43a7.87,7.87,0,0,1,0,3.15,1,1,0,0,1,0,.85c.34.34-.26,1-.34,1.53a2.56,2.56,0,0,1-.77,1.45,5.24,5.24,0,0,1-2,1.79,2.35,2.35,0,0,1-.77.09c0,.08.09.08.17.26l-.85.26a4.59,4.59,0,0,1-1.88,0c-.68-.17-1.36-.17-1.79-.34-.17-.17-.85-.17-1.19-.68a6.91,6.91,0,0,1-1.79-1.7,9.58,9.58,0,0,1-1.28-1.62,4.37,4.37,0,0,1-.68-2.39v-.09a.17.17,0,0,1,.17-.17l.09-1.53a10,10,0,0,1,2.22-2,5.2,5.2,0,0,1,1.53-.77v.09a8.2,8.2,0,0,0-3.15,3.49h.17c.08,0,.17-.09.34-.26a3.46,3.46,0,0,0,.51-.94,5.84,5.84,0,0,1,1.45-1.53l.85-.6.09.77-1,1.11-.51,1.19a4.45,4.45,0,0,0,.26,2.81c.17.17.43.43.34.6,0,.77.51,1.11,1.19,1.79a2.67,2.67,0,0,0,1.62.34c1.62-.26,2.13-.51,2.81-1.45a4,4,0,0,0,.68-1.7,6.55,6.55,0,0,0,.09-2.22,5.67,5.67,0,0,0-.6-3l-1.19-3.07-.17-.26-.51-1-.34-.51-.17-.43-.08-.34a11.87,11.87,0,0,0-.85-2.3,1.65,1.65,0,0,1-.26-1.11l-.34-.68c0-.34-.08-1.36.26-1.7.09-.6-.08-1.36.34-1.87a8.9,8.9,0,0,0,1-1.45,2.94,2.94,0,0,1,1-.6l.77-.43a7.84,7.84,0,0,1,2.22-.43,3.37,3.37,0,0,1,2.39.6C203.74,276.33,203.65,277.52,203.65,277.86Zm-8,5.2c.09.09.09,0,.17,0-.08-.34-.08-.77-.17-1.36-.08,0-.08,0-.17.26A2.71,2.71,0,0,0,195.64,283.06Zm1.79,4.35c.17-.6-1.19-2.9-1.79-3.24C196.07,285.19,196.84,286.3,197.43,287.41Zm-.34-3.75.17.09.26-.43c-.17-.51-.43-.77-.6-1.19l-.08.17A7.72,7.72,0,0,1,197.09,283.66Zm.68,4.6a1.38,1.38,0,0,0-.26-.77C197.35,288,197.26,287.92,197.77,288.26Zm.08-3.75c-.43,0-.6.68-.26,1Zm1.19,2.9c0,.08.08.08.17.08a3.93,3.93,0,0,0-.85-1.19A1.25,1.25,0,0,0,199.05,287.41Zm3.15-10.91c.09,0,.26,0,.09-.09a3.63,3.63,0,0,0-1.28-.77c-.09,0-.09.09,0,.09C201.44,275.82,201.78,276.24,202.21,276.5Z"/>
<path class="cls-10" d="M268.42,241v.26a2.33,2.33,0,0,1,.43-.68c-.51-.94.34-1.53.43-2.3a4,4,0,0,1-.34,2.3,8.29,8.29,0,0,1-.26,1.28,3,3,0,0,0-.51-.09l-.17.6h.09c.09-.09.26-.17.43-.34v.17c-.17,1-.51,2-.77,3.15,0,.17-.26.26-.26.26.26.51-.17.77-.6.94-.09,0-.09.09-.09.34a.58.58,0,0,1,.26-.34c.85,1-.34.51-.43.85a1.32,1.32,0,0,0,.34.51v.09a1.26,1.26,0,0,1-.51-.09c0,.51.09.94.09,1.28a1.26,1.26,0,0,0-.6.09v.08l-.09.43a7.31,7.31,0,0,0-.09,1.36c-.09,0-.17.08-.43.17-.43,0-.51.26-.34.6.17.17.09.6-.26.94a5.31,5.31,0,0,1-.68,1.79,1.44,1.44,0,0,1,.09-.6,2.35,2.35,0,0,1-.77-.09l.6-1c-.34,0-.6.43-.85,1.28a1.81,1.81,0,0,1,.6.26c-.34.34-1,.51-.6,1.19a3.32,3.32,0,0,0-.51.94h-.17a1.73,1.73,0,0,1-.51,1.62,5,5,0,0,1-1.11.94c.17.26.26.34.26.43H261a6.32,6.32,0,0,0-1.11,1.88c-.26.77-.6,1.19-.77,1.7,0,0-.09-.17-.17-.17a5.47,5.47,0,0,0,.17-.6,1.94,1.94,0,0,1-.43.43v-.43c.09-.17.26-.34.26-.51.17-.43.09-.6.43-.68.09,0,.17-.26.26-.34a20,20,0,0,0,1.11-1.7,5.39,5.39,0,0,0,.6-1l-.09-.09c-.34.17-1.62,1.36-1.87,1.53-.09.68-.26.94-.85.85a1.56,1.56,0,0,1,.17-.77s-.09,0-.26-.17a8.1,8.1,0,0,1-1,1.36,9.12,9.12,0,0,1-1.28,1.88c-.17,0-.26.17-.17.26a1.11,1.11,0,0,1-.77.85.42.42,0,0,0,.09.26c-.09.17-.6.34-.51.94l-.09.09a17.91,17.91,0,0,1-1.19,1.45c-.17,0-.17.34-.26.43.09.09.09.09.26.09.26-.43.68-.77.85-1.11.09,0,.09-.17.09-.26.68-.26,1-1.11,1.36-1.7.26-.43.77-.85,1-1.28a8.43,8.43,0,0,0,1.11-1.7c.34-.43.34-.43.94-.26.26.43-1.11.17-.6,1-.51.08-.43.6-.6,1a.26.26,0,0,0-.09.17c-1,.43-1,1.11-1.28,1.62a15.87,15.87,0,0,1-1.53,2v.26a3,3,0,0,1,.77-.6c.26-.51.6-1,.94-1.62.17-.51.77-.6,1.28-.43-.26.6-1.19.17-1.19,1,.43.17.43.17-.09.68-.08,0-.26-.17-.26-.17-.17,1.19-1.19,2.22-1.79,3.15h-.26a7.72,7.72,0,0,0,.94-1.87A.08.08,0,0,1,255,267a.77.77,0,0,1-.26.6.08.08,0,0,1-.09-.08v-.26h-.17l-1.11,1.19L251.55,271c-.43.51-.77.77-1,1.11-.43.68-.94,1.36-1.45,2a.34.34,0,0,1-.34.17c-.43.09-.68.17-.6.6-.34-.08-.77-.34-.94.17a6,6,0,0,0-.17,1,1.11,1.11,0,0,0,1-.51,14,14,0,0,0,1.79-2c.6-.6,1-1.36,1.62-2a20.77,20.77,0,0,1,1.79-2.47c0-.17.26-.26.43-.34.08.09.08.09.08.17s.34.6.68.51a1,1,0,0,0-.43.68c-.17-.09-.43-.09-.68-.17-.17.6-.77.94-.6,1.79a3.42,3.42,0,0,0-.51-.17v.08c.17.09.26.09.26.26a3,3,0,0,0-.77.34c.43.51-.09.77-.26,1a3.78,3.78,0,0,0-1.11,1.19c-.43.43-.43.43-.6.43-.17.17-.17.34-.34.6-.17.09-.26.34-.34.51l-3.75,4.77a.92.92,0,0,0-.17.6v.34c0,.09,0,.34-.17.43.17.17.08.43-.17.85-.17.17.08.6.08.94l.43,3,.26.94c0,.09.17.6.34.68a2.27,2.27,0,0,0,1,.85,5.61,5.61,0,0,0,2.64.26,13.59,13.59,0,0,0,3.84-.85c2.13-.77,4.09-2,6.22-3a10,10,0,0,0,1.28-.77c.17-.09.17,0,.34,0a45.83,45.83,0,0,1-7.41,4.18l.6.17c.51,0,.85.26,1.36-.09a7.67,7.67,0,0,1,.85-.17l.08-.43c1.11-.85,2.39-1.53,3.41-2.22.08.09.08.09.26.09-.6.6-.94,1-1.62,1.62,0,0,.26.09.26.26a27.64,27.64,0,0,0-2.3,2c-.85.51-2.9,1-3.66,1.45a7.17,7.17,0,0,1-2,.6,3.54,3.54,0,0,1-1.36.17c-.51,0-1.11-.17-1.7-.17a7.54,7.54,0,0,1-3.41-.94,4.34,4.34,0,0,1-1.79-2.22l-.26-.26-.08-.34c-.26-1.19-.68-2.22-.85-2.81l-.94,1.36a7.46,7.46,0,0,0-.51.85c-.85,1.19-1,1.11-1.53,1.79s-1.28,1.28-1.88,2c-.77.51-1.53.94-2.47,1.45a4.81,4.81,0,0,1-4,.43,5.43,5.43,0,0,1-1.88-1.11c-.34-.26-.51-.94-.85-1.53-.09-.17,0-.51-.09-.85-.17-.77-.85-1.45-.68-2.47a14.08,14.08,0,0,0,.6-2.73V285h.17c.34-.85.77-2.13.94-2.56,0,0,0-.09.17-.09a12.28,12.28,0,0,1,1.11-2l.51-.77c5.11-5.71,10.06-3.32,10.06-3.32a2.69,2.69,0,0,1-.08,4.43H240c-1.11.09-1.62-.43-1.79-1.62-.34-.85-1.11-1-2.56-.51a6.41,6.41,0,0,0-1.19.94,10.86,10.86,0,0,0-2.64,3.58,11,11,0,0,1-.6,1.11.92.92,0,0,1-.17.6,12.12,12.12,0,0,0-.51,2.39c-.09.26-.09.6-.26.77-.6,1.11-.17,2-.26,3.07a2.74,2.74,0,0,0,2.64-.34,7,7,0,0,0,1.88-1.36c.77-.6,1.19-1.45,1.87-2,.34-.68,1-1.11,1.45-1.7l2.3-3.24,1.36-2.47a7,7,0,0,0,.6-1.28,5.33,5.33,0,0,1,.17-.6,1.7,1.7,0,0,0,.17-.77l.85-5.71c.34-1.45.6-2.73,1-4.26.26-1.11.43-2.22.68-3.49a6.11,6.11,0,0,0,.43-1.19l.43.17a3,3,0,0,0,.26-.94c-.26.17-.43.43-.68.6,0-.17,0-.43.08-.51.43-1.53.85-3,1.36-4.43a51.72,51.72,0,0,1,2-6.14c.08-.34.17-.34.6-.09,0-.17.17-.26.17-.51a2.26,2.26,0,0,0-.68.26,11.51,11.51,0,0,1,.94-2.22l.77-2.3c.43-.77.77-1.53,1.28-2.47.26-.51.34-1,.68-1.62a3.5,3.5,0,0,0,.68-1.19l.77-1.45c0-.17,0-.17.09-.26a10.82,10.82,0,0,0,1.28-2.22.18.18,0,0,1,.17-.17c.26-.43.68-.85.94-1.28.08-.08.08-.08.08-.17,0-.77.68-1.19,1-1.62s.77-.94,1.11-1.45a7.78,7.78,0,0,1,4.69-2.39,4.92,4.92,0,0,1,4,.94c.94.51,1.11,1.53,1.7,2.56.17.68-.34,1.45-.09,2.13a.66.66,0,0,1-.26.34l.68.26v.26h-.43A37.38,37.38,0,0,0,268.42,241Zm-40.57,44.66c0-.09.08-.09.08-.17v-.34h-.17A1.08,1.08,0,0,0,227.85,285.62Zm10.06,1,.26-.17c.17.09.17.17.34.43a6.18,6.18,0,0,1,.94-1.62.72.72,0,0,1-.6,0,8.58,8.58,0,0,1-1.11,1.36Zm7-19.69c.09-.51.34-1.28.43-1.87h-.26a17.57,17.57,0,0,1-.34,1.87Zm.94,7.24c.09-.17.26-.26.26-.34a14.71,14.71,0,0,0,.94-1.19c.77-.85,1.53-2,2.3-3,.51-.51.94-1.28,1.53-2l1.62-2.3,2-2.73c.6-.85,1.19-1.88,1.79-2.73a16.39,16.39,0,0,1,1.45-2.22c.85-1.62,1.87-3.24,2.73-4.94a18,18,0,0,0,1.53-2.81l1.36-3.66.77-1.7a18.56,18.56,0,0,0,.94-3.41c.26-1.7.6-3.15.94-4.86a6.2,6.2,0,0,0-.34-3.92c0-.26-.09-.43-.17-.43a2.64,2.64,0,0,0-1,.43l-.6.68a2.6,2.6,0,0,1-.85.6l-1.62,1.62a23.68,23.68,0,0,0-2.81,3.58,6.83,6.83,0,0,0-.77,1.19,17,17,0,0,1-1.36,2,13.23,13.23,0,0,1-.68,1.62,10.35,10.35,0,0,1-.77,1.7c-.34.6-.6,1.11-.94,1.62a10.75,10.75,0,0,1-.34,1.19,3.58,3.58,0,0,0-.68,1c-.17.51-.26,1.19-.43,1.79a22.85,22.85,0,0,0-1.11,2.9c-.26.6-.68,1.19-.94,1.87H251c-.43.51-.26,1.45-.94,1.62,0,.17.09.26.09.43-.17.6-.26,1.11-.43,1.62a21.27,21.27,0,0,0-.77,2.13,4.35,4.35,0,0,1-.51,1.7,7.13,7.13,0,0,1-.68,1.7c-.09.34.08.85.34.94a4.39,4.39,0,0,0-.43,1,.66.66,0,0,0-.08.26c-.51.68-.17,1.36-.43,1.87,0,.09.26.17.26.17,0,.17.08.26,0,.34-.26.43-.43.94-.68,1.36-.08-.09-.08-.26-.17-.43-.08.09-.26.09-.26.17.26.51.51.94.17,1.45s-.34,1.11-1.11,1.11C246.09,273.6,246.09,273.6,245.84,274.2Zm0-8.52c-.08.6-.43,1.28-.51,2Q246.22,266.06,245.84,265.67Zm.26-.43a35.88,35.88,0,0,0,1-4.09s-.08,0-.08-.17l-1,4.18A.08.08,0,0,1,246.09,265.25Zm.6,10a8.33,8.33,0,0,0,.94-1.19c.17-.43.09-.6-.17-.68-.26.43-.51.68-.85,1.19-.17,0-.09-.09-.17-.09a2.39,2.39,0,0,0-.09.68Zm.68-14.49a12,12,0,0,1,.51-1.87c-.17,0-.17-.17-.26-.17a10.22,10.22,0,0,1-.51,2Zm.51-4.43c.26-.68.51-1.53.77-2.3a.37.37,0,0,0-.26.08.08.08,0,0,0-.09.09,19.74,19.74,0,0,1-.6,2.13Zm2.39-7.07a2.62,2.62,0,0,1-.68,1.11C250.27,250.16,250.44,249.4,250.27,249.23Zm.34,3.24c.17-.6.43-1.11.6-1.7,0,0-.17,0-.17-.09a10.08,10.08,0,0,1-.6,1.7S250.44,252.46,250.61,252.46ZM251,248l.26-.77a10.51,10.51,0,0,0,1-2.22c.26-.26.26-.68.34-.94s.34-.43.51-.68a9.06,9.06,0,0,1,.77-1.62c.34-.6.77-1.28,1.19-1.87a30.11,30.11,0,0,1,2.56-3.84,12.26,12.26,0,0,0,.68-1.11v-.43a1.49,1.49,0,0,1-.43.34,6.52,6.52,0,0,1-.94,1.36,2,2,0,0,0-.6.85c-.26.17-.26.6-.51.94-.08.17-.43.51-.6.85a1.71,1.71,0,0,1-.85,1,1.12,1.12,0,0,1,.26.43c-.51.6-.85,1.36-1.36,2-.17.68-.68,1-.68,1.7a14.29,14.29,0,0,1-.85,1.19c-.26.77-.6,1.45-.85,2.22C250.69,247.61,250.86,247.78,251,248Zm2,19.77c-.26-.09-1,.26-1,.51s0,.43-.09.68C252.23,269.17,252.57,268.91,252.91,267.81Zm6.82-10.31v-.09c-.09-.09-.17-.17-.26-.17.17-.34.34-.51.51-.85.26-.17.34-.43.51-.6a20.18,20.18,0,0,0,1.36-1.79,2.5,2.5,0,0,1,.6-1c.09-.34.34-.6.43-.94a.3.3,0,0,1,.09-.17c.77-.17.6-.68.85-1.28l-.34.6a1.23,1.23,0,0,1,.94-1.36c-.26-1,.51-1.87.77-3a17.14,17.14,0,0,0,1-3.15h-.09c-.09.43-.43,1-.6,1.53-.34.68-.43,1.28-.68,1.87a8.3,8.3,0,0,1-1.19,2.47c-.34.68-.77,1.62-1.19,2.39a10.47,10.47,0,0,0-1,1.62,5.19,5.19,0,0,1-.6,1.19c-.34.17-.34.68-.68,1-.34.17-.6.85-.77,1.36v.34Z"/>
<path class="cls-10" d="M273.45,289.37a20.47,20.47,0,0,0,3.15-1.87c-.09.17-.09.34-.17.43a10.87,10.87,0,0,1-1.11.94l-1.62,1.28a12.57,12.57,0,0,0-1.79,1.11,20.44,20.44,0,0,1-2.3,1.36,5.45,5.45,0,0,1-1.7.34,1.19,1.19,0,0,0-.77.26,5.53,5.53,0,0,1-1.28.34,5.19,5.19,0,0,1-2,.26,12.4,12.4,0,0,1-2.56-.51,4.84,4.84,0,0,1-2-1c-.09-.17-.34-.26-.43-.34a5.85,5.85,0,0,1-1.45-1.7c-.17-.17-.17-.17-.34-1a4.65,4.65,0,0,1-.34-2.22,11.64,11.64,0,0,1,1.36-4.94,17.44,17.44,0,0,1,1.11-1.53c.77-.94,1.53-1.79,2.3-2.64a4.42,4.42,0,0,1,2.81-1.36,3.74,3.74,0,0,0,.85-.17c.85-.34,1.62.26,2.22.6a8.6,8.6,0,0,1,2,1.36,2.68,2.68,0,0,1,.85,2.56,3.53,3.53,0,0,1-.68,1.11c-.77.85-1.53,1.62-2.3,2.39-.26.26-.77.34-.85.6-.09.6-.68.68-1,.85l-.6.34a.38.38,0,0,1,.26.08,7.88,7.88,0,0,1-.85.43c-.09.09-.09.34-.17.43-.6.34-1.28.6-1.79.94-.26.08-.43.34-.6.51-.68.34-.94.43-1.53.77.34,1,.51,1.19,1.19,1.45,1.11-.09,2.22,0,3.32-.17a11.79,11.79,0,0,0,2.3-.68c.6-.26,1.28-.6,2-.85a7.44,7.44,0,0,0,1.28-.43c.94-.6,2-1.11,2.81-1.62l.26-.17.08.09a1.83,1.83,0,0,1-.34.43c.09.09.17.17.09.26a1.62,1.62,0,0,0,.68-.17c.09.08.09.08,0,.17a10.76,10.76,0,0,0-1.11.94,7.64,7.64,0,0,0,1.11.43,2.75,2.75,0,0,0-.51.26A.29.29,0,0,0,273.45,289.37Zm-11.85-4.43c.17,0,.34.09.43,0a6.31,6.31,0,0,0,1-.77c-.26,0-.34.08-.6.08.51-.43.77-.94,1.36-.94-.17.26-.43.43-.6.68a.08.08,0,0,0,.09.09c.77-.51,1.45-1.11,2.22-1.62l-.17-.17a2.36,2.36,0,0,1-.68.51,7.48,7.48,0,0,1-.85.51.31.31,0,0,0,.09-.26,26.36,26.36,0,0,0,2.3-2,5.31,5.31,0,0,0,1.19-1.53c.26-.43-.17-1.19-.51-1a9.91,9.91,0,0,0-2.22.85,10.83,10.83,0,0,0-2.13,1.79,21.19,21.19,0,0,0-1.79,3,8.77,8.77,0,0,0-.6,1.79C260.83,285.45,261.26,285.19,261.6,284.93Zm7-5-.26-.68a2.33,2.33,0,0,0-.68,2.3C267.91,281,268.33,280.42,268.59,279.91Zm4.26,7.84c-.09-.26-.85,0-1.45.77A11,11,0,0,0,272.85,287.75Zm3.07-2.47c-.09.43-.6.6-2.3,1.45a.08.08,0,0,1-.09-.09C274.3,286.13,275.07,285.79,275.92,285.28Zm-2.13,2.56c.43.43,1.19-.43,1.87-.77l.6-.34c.34-.09.51-.34.17-.85-.6.51-1.36.94-2,1.53a2,2,0,0,0-.6-.26,6.74,6.74,0,0,0,2.47-2c.17-.17,1.11-.6,1.36-.85l.6.26a3.71,3.71,0,0,1,.51-.6c-.09-.08-.17-.08-.34-.17l.09-.09a4.22,4.22,0,0,0,.94-.08c-.09-.17-.17-.26-.17-.34l.43-.34-.09-.09-.34.26h-.17l1.45-.94.17.6a.08.08,0,0,1,.09.09c-.26.17-.43.43-.68.6-.51.34-1,.6-1.45.94v.09a.08.08,0,0,1,.09-.09.3.3,0,0,0,.09.17,5.44,5.44,0,0,1-.94.68l.08.34c-.34.17-.51.34-.26.6-.34.26-.85.26-.94.85a.08.08,0,0,1-.09.09c-.6,0-.94.6-1.36.94a5.53,5.53,0,0,1-1,.6c-.17.09-.34-.09-.51-.17a.93.93,0,0,1-.08-.43A.3.3,0,0,1,273.79,287.83Z"/>
<path class="cls-10" d="M315.88,286.55a16.68,16.68,0,0,1-1.28,2.81,23.76,23.76,0,0,0-1.79,2.3L311,293.2a19.17,19.17,0,0,1-1.87.94c-.17,0-.43.08-.51,0a15,15,0,0,1-1.45-.51c-.34-.17-.6-.26-.68-.77l-.17-.09a2.27,2.27,0,0,1-1-2c-.17-.26.17-.51.17-.94.51,0,.51.43.6.77a.69.69,0,0,0,.85.77,3.16,3.16,0,0,0,1.79-1.28,9.8,9.8,0,0,0,1.79-2A23.13,23.13,0,0,0,312,286v-.34c.09-.34.34-.6.34-.77a3.85,3.85,0,0,0,.43-2.13,4.53,4.53,0,0,0-.43-1.53,1.53,1.53,0,0,0-1.79,0,7,7,0,0,0-1.79.94h-.17a3.65,3.65,0,0,1-.85.77,5.54,5.54,0,0,1-1.36,1.11,8.1,8.1,0,0,0-2.13,2,16.68,16.68,0,0,1-2.39,3,14.87,14.87,0,0,0-1.62,3.07h-.51a.34.34,0,0,1,.17.34,12.47,12.47,0,0,1-.85,1.11c-.17,0-.17.34-.26.51a.92.92,0,0,0,.51-.09c-.43.51-.34,1.36-1.19,1.36h.08a.27.27,0,0,0,.17.08c-.17.6-.26,1-.43,1.53,0,.08-.26.08-.34.17.34.17.17.51,0,.94-.09.26.17.68-.43.77.26,1.19-.26,2.56-.85,2.81.17.09.26.09.34.17-.09,0-.17.09-.34.09.17.09.17.09.26.09-.08.51,0,.94-.08,1.36a9.86,9.86,0,0,1-.68,2.22c-.17.68-.26,1.19-.43,1.7a.51.51,0,0,0,.09.34,2.52,2.52,0,0,1-.94.6,1,1,0,0,1,.51.68,6.26,6.26,0,0,0-.17.94,1.86,1.86,0,0,1-.51.09l.51.26a2.44,2.44,0,0,0-.68.6l.17.17a.88.88,0,0,0,.34.09,7.32,7.32,0,0,0-.77,3.32c0,.17-.17.34-.17.43a14.52,14.52,0,0,0-.26,1.53c0,.26-.09.34-.26.68a1.62,1.62,0,0,1-.51,1.87l.34.17-.51,1.62a1,1,0,0,1,.08.43c-.08.68-.43,1.62-.51,2.47a6.79,6.79,0,0,0-.09,1.87,2.16,2.16,0,0,1-.17,1,10,10,0,0,1-.34,1.53c0,.09-.09.17-.17.26,0-.09-.17-.09-.17-.09a3.65,3.65,0,0,0-.17,1,5.21,5.21,0,0,1-.85.26,4.92,4.92,0,0,1-1.11-.94,3.42,3.42,0,0,0,0-.94h-.34a5.21,5.21,0,0,0-.26.85,2.18,2.18,0,0,0-.77-.94c1.28-4.35,2-8.61,2.9-12.87.09,0,.17.08.34.08a1.46,1.46,0,0,1,.34-1.87,1.26,1.26,0,0,0-.51-.09,2.57,2.57,0,0,1,.34-.85,1.07,1.07,0,0,0,.17-1.11c-.17-.17.08-.51.17-.6A8,8,0,0,1,292,309a.84.84,0,0,1-.51.17,3.73,3.73,0,0,0,.94-2.64,2.86,2.86,0,0,0-.26.51v-.6c.34,0,.43-.34.6-.68l.51-2.73a5.85,5.85,0,0,0,.17-1.11,42.52,42.52,0,0,0,1.36-5.45c.26-1.28.6-2.47.94-3.84.17-.85.51-1.7.6-2.47.34-1.45.51-2.9.94-4.43.09-.85.34-1.7.51-2.64.34-1.11.68-2.22.94-3.32a14,14,0,0,1,.85-2.13c.08-.6.26-.77.77-.68h.26c.77-.09,1.11.43,1.36.94l.26,1.11a1,1,0,0,1-.08.85,3.15,3.15,0,0,1-.17.77c-.34.17-.34.34-.08.68-.09.08-.09.26-.17.34-.17.77-.43,1.36-.6,2.3H301c-.08.85-.34,1.19-.51,3.15v.17a4.93,4.93,0,0,0-.43,1.45c.26-.43.77-.68.94-1.36,0-.09-.08-.17.17-.17.09,0,.17-.17.43-.34a.46.46,0,0,1-.43-.26,1.17,1.17,0,0,1,.68-.43c.17-.43.17-.94.85-.77a1.14,1.14,0,0,1,.09-.43c.6-.08,1-.77.94-1a2.61,2.61,0,0,1,.6-.43V283h.85c.17-.08.26-.08.26-.17-.09-.43.34-.43.51-.51a5.85,5.85,0,0,1,2-1.36,2,2,0,0,1,1-.6V280a12.08,12.08,0,0,1-1.36.43,3.13,3.13,0,0,0-1.36.77,29.22,29.22,0,0,0-2.39,1.87h-.17a.08.08,0,0,1-.09-.09,1,1,0,0,0,.51-.51c.09-.09.34-.26.34-.34.09-.34.09-.43.26-.51.51-.34,1.19-.43,1.53-.85a11.53,11.53,0,0,1,1.36-1,5.67,5.67,0,0,1,2.73-.6,12.35,12.35,0,0,1,1.87.34c.43.09.68.26,1.28.43.08,0,.17.09.26.34v.17a5.77,5.77,0,0,0-.6-.17l-.26.09a4.07,4.07,0,0,1,.94.51,4.47,4.47,0,0,0,1,.26l.09-.17a6.43,6.43,0,0,1,1,1.28c.17,0,.17.08.09.26,0,.43.08.77.08,1.11C316.05,284.51,316.31,285.7,315.88,286.55Zm-25.31,33.15c.09-.34.94-.43.34-1.11.26-.17.43-.26.26-.51a2.21,2.21,0,0,1,.26-1.62c.17-.09.26-.6.34-1.36l-.09-.17a.65.65,0,0,0,.17-.34v-.34c0-.26.26-.51.26-.6a.92.92,0,0,0-.43-.09c-.51,2.13-.94,4-1.28,6.05A.3.3,0,0,1,290.57,319.71Zm1.53-6.31c0-.26.09-.51.09-.77a1.74,1.74,0,0,1-.09-.43.65.65,0,0,1-.26.09c-.09.34-.09.68-.17,1.11Zm.26-2.39c.17-.17.26-.34.34-.43-.09-.08-.09-.26-.43-.43-.26.77-.26,1.36-.43,2C292.62,311.78,292.36,311.27,292.36,311Zm.26-.85c.09-.17.17-.17.34-.26l-.26-.17c.17-.51.34-.77.51-1.19a7.56,7.56,0,0,1,.51-1.7,7.31,7.31,0,0,1,.09-1.36,3.17,3.17,0,0,0,.34-1.28h-.26a4.07,4.07,0,0,1,.26-.6.52.52,0,0,0,.08-.34c0-.09,0-.26-.08-.26a3.86,3.86,0,0,1,.77-.26v-.17h-.68a4.32,4.32,0,0,0,.17-.77.78.78,0,0,1,.43.08,6.65,6.65,0,0,1-.17-1.19l.6-.26a.77.77,0,0,0-.43-.26c.26-.17.51-.26.51-.43a11,11,0,0,0,.34-2.13c.26-.6.26-.6-.26-.85,0,.26-.17.34-.17.51.17,0,.26,0,.34.08-.09.09-.17.09-.43.26l.34.34c-.17,0-.34.17-.6.17v.51a4.26,4.26,0,0,0-.26,1.11c-.26.77-.34,1.7-.51,2.47a20.69,20.69,0,0,0-.85,3.07,6.65,6.65,0,0,0-.34,2.64l-.08.08a16.31,16.31,0,0,0-.51,1.79C292.36,309.91,292.45,310,292.62,310.16Zm.34,3c.09-.34.09-.68.17-1.11a2,2,0,0,0-.43,1.79A2.18,2.18,0,0,0,293,313.14Zm1.88-9.12a2.17,2.17,0,0,0-.26,1.7C294.49,305.13,295.26,304.54,294.83,304Zm.17,6.31c-.09,0-.17,0-.17-.09S294.92,310.33,295,310.33Zm.77-13.89c.17.09.26,0,.26-.08a8.89,8.89,0,0,0,.34-1.45l.26-1.45a2,2,0,0,1,.26-.77c-.17,0-.26,0-.17-.09a1.7,1.7,0,0,0-.51.77,2.36,2.36,0,0,0,.09.85c-.34,0-.26.26-.17.51-.26.34-.34.6-.51.77.17.34.17.43.17.51s-.17.08-.26.26C295.6,296.36,295.68,296.44,295.77,296.44Zm1.19-4.18c.09-.6.34-1.36.43-2h-.26a7.86,7.86,0,0,1-.34,1.36c0,.26,0,.51-.08.6Z"/>
<path class="cls-10" d="M344.77,243.86l.6.26c0,.26-.17.43-.26.68-.17-.08-.17-.26-.26-.34a.31.31,0,0,1-.26.09,4,4,0,0,1,.43.85c-.85,0-.6.77-.68,1.11-.26.43-.17.94-.34,1.28.26.17.68.34.68.43a4,4,0,0,0-.51,1.45c.43.51-.43.85-.43,1.45a.3.3,0,0,0,.08-.17l.17.26c.17.26.17.43-.17.51s-.51.34-.77.68h.68a5,5,0,0,0-1,1.45,6,6,0,0,1-.51.77c-.17.26,0,.51.09.68a3.25,3.25,0,0,1-.26,1.53.26.26,0,0,0-.17-.09c-.08-.17-.08-.26-.17-.34-.09.09-.17.34-.26.43l.26.17v.09c-.34-.09-.6-.09-.68.51,0,.17-.26.43-.34.6s-.17.17-.09.34c.09-.17.43-.43.6-.68.09.51-.17,1.19-.68,1.28-.09.08-.34,0-.43.08-.77,1.53-1.36,3-2,4.26a.54.54,0,0,1,0,.51,18,18,0,0,1-1.87,2.81c-.09.17-.26.6-.6.26-.09-.09-.26.09-.51.26a1.26,1.26,0,0,1,.6.09,17,17,0,0,0-1.36,2c-.17-.17-.26-.17-.34-.26l-.09.09a3.68,3.68,0,0,0,.09.43.77.77,0,0,0-.43.09h-.17c-.34.68-1.36.77-1.11,1.79a5.55,5.55,0,0,1-1.19,0c-.34.43.43.43.51,1-.17-.09-.26,0-.26,0-.43.34-.43.77-.68,1l-1.7,1.62a42.93,42.93,0,0,1-3.41,3.41,11.52,11.52,0,0,0-1,3.41,33.45,33.45,0,0,0-.43,5.11,16.84,16.84,0,0,0,1.11,5.88,5,5,0,0,0,1.7,2.3c1.36.6,2.13,0,3.49-.94,1.36-.6.43,2.81-1.36,3.32a4.5,4.5,0,0,1-3.41-.34,4.92,4.92,0,0,1-1.28-.94c-.43-.51-.77-1-1.28-1.62a11.36,11.36,0,0,1-.94-2,20.23,20.23,0,0,1-.6-2.64,23.94,23.94,0,0,1,0-6.05,40.29,40.29,0,0,1,.68-5.37l.51-2.81a3.82,3.82,0,0,1,.17-1.19c.26-.94.34-1.36.6-2.56a30.62,30.62,0,0,1,.85-3.24c.34-1.28.85-2.64,1.19-3.84.34-.6.6-1.36.94-2a5.44,5.44,0,0,1,.51-1.53c.09-.17.26-.26.26-.43l.43,1.19a11.38,11.38,0,0,1,.51-1,14.36,14.36,0,0,1,1-2.39c.09-.43.43-1.11.34-1.36-.17-.6,0-.6.34-.68a.17.17,0,0,0,.17-.17c.34-.68.6-1.45.94-2-.43-.17-.68-.17-.85.34a4,4,0,0,0-.43.85.78.78,0,0,0-.26.43c-.17-.09-.34-.09-.34-.26a.86.86,0,0,0,.43-.34,4.54,4.54,0,0,0,.51-1.19,13.13,13.13,0,0,0,.6-2,4.48,4.48,0,0,0,.68-1.45c.09-.17.26-.17.34-.34.43.09.6.34.6.85-.17.51-.6.77-.94,1.11a1.9,1.9,0,0,0-.26.43.52.52,0,0,1,.34.08,3,3,0,0,0-.17.85c.77-1.7,1.53-3.07,2.3-4.6-.34.43-.34.43-1.11.43-.17,0-.17.17-.26.17a2.14,2.14,0,0,1,.08-.68c.85-1.45,1.7-3.24,2.73-4.77a13.39,13.39,0,0,1,2.13-3c.77-.68,1.53-1.45,2.22-2.13.94-.94,2-.68,3.15-.34a11.37,11.37,0,0,1,1,.51,3.83,3.83,0,0,1,1.19.85l.51.43a.26.26,0,0,1,0,.34,6.39,6.39,0,0,0,.26,1.53C344.6,242.92,345,243.43,344.77,243.86Zm-21.65,32.47c.17-.51.09-1.11.26-1.62.51-1.7,1.19-3.49,1.7-5.45a7,7,0,0,1,.6-1.53,5.79,5.79,0,0,1,1.28-3.15,1.76,1.76,0,0,1-.43.08c.26-.34,0-1,.6-.85.09.09.17-.09.17-.09a2.68,2.68,0,0,1,.43-.85l-.6-.26A90.06,90.06,0,0,0,323,275.48C323.13,275.48,323,276.33,323.13,276.33Zm1.7-3.49a11.41,11.41,0,0,0-.77,3.15A15.33,15.33,0,0,0,324.83,272.83Zm2.9.85a9.07,9.07,0,0,0,1.7-1.87c1.11-.85,2-2,2.9-2.9l.77-.94c.34-.43.68-1.11,1.11-1.62.6-1,1.28-2,2-3.07.34-.34.85-.43.77-1.11.51-.17.68-.68.85-1.11.34-1,.94-1.79,1.36-2.81.26-.34.34-.77.6-1.11a4,4,0,0,1,.43-.94,1.45,1.45,0,0,1-.51-.51,3.76,3.76,0,0,0,.68-.17A1.8,1.8,0,0,1,340,255c.26-.08.43,0,.77-.08a2.26,2.26,0,0,1-.51-.43,7,7,0,0,0,1.11-.6c0-.09,0-.09-.09-.17a1.28,1.28,0,0,1-.6-.08c1-.85,1.53-2.22,1.11-2.73a3.83,3.83,0,0,0,.6-1.53c0-.6.08-.94.77-1.11l-.68-.26c.09-.08.09-.17.26-.26h.43c-.43-.34-.43-.6-.08-1.19a12.58,12.58,0,0,0,.08-1.87,3.44,3.44,0,0,0,0-.94c.34-.6.26-.68-.34-.77a8.67,8.67,0,0,0,.34,1.7c-.17.26-.34.43-.43.6a16.31,16.31,0,0,1-.26,1.87c-.17.51-.17,1.11-.68,1.53-.17.09,0,.34,0,.51s.08.26.17.43h-.17c-.17.17-.6.51-.6.68a1.47,1.47,0,0,1-.17,1c-.17.17-.17.43-.26.77a1,1,0,0,1-.43.43c-.34.94-.68,1.7-.85,2.39a3.94,3.94,0,0,0-.85,2.64c-.26-.51-.26-.34-.43,0a1.44,1.44,0,0,1-.17.43c-.43.85-.94,1.7-1.36,2.47-.68,1.19-1.45,2.39-2,3.5a1.38,1.38,0,0,0-.43.77c-.26.26-.34.6-.6.77-.09.09-.17.17-.26.17a7.22,7.22,0,0,1-1.19,1.62c-.09.26-.6.85-.6,1a5.66,5.66,0,0,1-1.11,1.28,6.93,6.93,0,0,0-.94,1.45,19.37,19.37,0,0,0-2.22,2.39,9.63,9.63,0,0,1-.85,1.11A2.81,2.81,0,0,0,327.73,273.69Zm.6-14.57a19.7,19.7,0,0,1-.85,2C327.13,260,327.64,259.11,328.33,259.11Zm1.11,10.31c1-1.28,2.22-2.81,3.15-4.18a15.28,15.28,0,0,0,1.79-2.3c.68-1,1.19-2,1.87-3.15.77-1.7,1.53-3.15,2.39-4.94a32.73,32.73,0,0,0,1.62-4.18,19.56,19.56,0,0,0,1.19-4.52,35.86,35.86,0,0,0,.94-4.35.64.64,0,0,1-.34-.09l-.6.51a1.8,1.8,0,0,1-.34.51,11.69,11.69,0,0,0-2.13,2.47,11.28,11.28,0,0,0-2,3,13.22,13.22,0,0,1-1.79,3c-.43.85-1,1.7-1.36,2.56a29.73,29.73,0,0,0-1.19,2.9,11.38,11.38,0,0,1-.51,1,17.71,17.71,0,0,0-.85,2,4.6,4.6,0,0,0-.51,1.53c-.17.51-.09.85-.26,1.28a25,25,0,0,1-1.19,2.81,28,28,0,0,1-1.36,3.75,11.12,11.12,0,0,0-.51,1c-.08.51,0,1.11-.08,1.62Zm4.6-21.9c.09,0,.17.34.26.51a1.09,1.09,0,0,0-.51-.08v.77H334c.17-.26.17-.51.34-.68s.43-.43.6-.68c.68-1.19,1.45-2.13,2.22-3.32a3.41,3.41,0,0,1,.6-1.11.86.86,0,0,0-.08-.26,9.13,9.13,0,0,0-.85,1c-.34.77-1,1.28-1.28,2.13-.08.17-.34.26-.51.43s-.17.17-.26.34a5.27,5.27,0,0,1-.68.68l-.6.34C333.69,247.61,334,247.44,334,247.52Zm3.58,16.79-.77-.34c0-.09,0-.09.09-.09.26-.09.43-.09.77-.17v-.08l-.77-.26c-.43.68-.94,1.53-1.45,2.22C336.34,265.42,336.17,264,337.62,264.31Zm.34-2a9.71,9.71,0,0,0,.68-1.19c.26-.43.43-.94.68-1.36a7.06,7.06,0,0,0,.77-1.36,8.65,8.65,0,0,0,.68-1.28,3.2,3.2,0,0,0,.43-1.19v-.09c-1.19,2.13-2.3,4.35-3.32,6.48Z"/>
<path class="cls-10" d="M365.91,285c-.43.51-1.11.85-1.19,1.7l-.34.17c.34.6-.34.68-.6.85-.43.17-.17.51-.51.68a.89.89,0,0,0,.51.26c-.34,0-.51.08-.68.08-.43,0-.6.34-.68.77a1.18,1.18,0,0,1-1,.94.93.93,0,0,0-.6.26c.17.17.17.26.17.34l-1.11.77c0,.08,0,.08.09.17a2.16,2.16,0,0,1,.6-.34.08.08,0,0,0,.09.09,4.53,4.53,0,0,1-3.75,1.62c.17.17.17.26.34.43-.85-.17-1.36.68-2,.26-.26-.09-.43,0-.68-.09a3.27,3.27,0,0,0-1.11-.34,4,4,0,0,0-.85-.43c-.34-.17-.77-.34-.77-.51a2.3,2.3,0,0,0-1.28-.94,2.46,2.46,0,0,1-1.36-1.7c-.17-.26-.34-.43-.43-.6a13,13,0,0,1-.77-1.53c.09-.17,0-.26-.17-.51l-1.28,1.28h-.09c0-.09.09-.17.09-.34-.17-.17-1.45,1.11-1.7,1.53-.08.17-.08.26-.17.26-.09.17-.34.34-.43.43a6.2,6.2,0,0,1-1.87,2c-1.19.51-2.22,1.28-3.49,1.36a1.48,1.48,0,0,1-1.79-1c-.08-.08-.08-.17-.08-.34a1.44,1.44,0,0,0-.17.43c.17.17-.17-.09-.34-.26a7.3,7.3,0,0,1-.94-1.19,4.69,4.69,0,0,1-.34-4.09c.68-2.47,3.07-5.11,2.81-5.71-.85.26-1.53.34-1.79.09-.34-.6-.68-1-.6-1.45a1.94,1.94,0,0,1,.77-.68,4.5,4.5,0,0,1,1.28-.68,3.48,3.48,0,0,1,1.87,0c.43.34,1.11.51,1.36.94.68,1.19.17,2.39-.77,4.52-.43,1-1.36,2.81-1.62,3.41-.34.77-.68,2,0,2.39a1.79,1.79,0,0,0,1.7-.26,11.31,11.31,0,0,0,2.3-1.87c.94-.85,1.62-1.7,2.56-2.64s1.62-1.87,2.47-2.73c.51-.51.94-1.11,1.45-1.62.09-.17.43-.26.51-.51.17.68.34.26.68.08a5.28,5.28,0,0,1,1.11-.08c0,.08.09.08.09.17l-.43.26c0,.09,0,.09-.09.17.6.17,1.28.17,2,.34a.23.23,0,0,1-.26.26.08.08,0,0,1,.09.09c.6.08.68.34.51.85a4.36,4.36,0,0,0-.85,1.79,7.87,7.87,0,0,0-.51,5,2.54,2.54,0,0,0,.34.85c.94.94,3.24.34,4.69-.34a17,17,0,0,0,2.64-1.62c1.62-1.11,3.24-2.3,4.77-3.58l1.19-1.11c0-.09.17-.09.26-.09s.17.09.09.17l-1.45,1.53a.74.74,0,0,0,.85-.34C365.23,284.93,365.57,285,365.91,285Zm-25.74-2.3a4.41,4.41,0,0,0-1.62,2.56,1.21,1.21,0,0,0-.17.51c-.43.34-.43.34,0,.51C338.55,285.79,339.83,283.57,340.17,282.72Zm3.41,6c-.85.51-2,1.11-2.9,1.7C341.36,290.39,343.49,289.2,343.58,288.69Zm5.2-6.39c-.94,1.11-1.79,2-2.81,3.07C347,285,348.86,282.8,348.78,282.29Zm-.94,3.24c.51-.51.85-.94.51-1.45a3.56,3.56,0,0,1-.26.34,4,4,0,0,1-.43.85c0,.09-.17.09-.26.17v-.34a6.88,6.88,0,0,0-.85.77C347.16,286,347.5,286,347.84,285.53Zm11.33,4.09.77-.26c-.26-.17-.43-.34-.51-.34a1.85,1.85,0,0,1-.43.34C359.09,289.54,359.18,289.45,359.18,289.62Zm2-1.53c.68-.51,1.36-1.19,2-1.79,0,.09,0,.09.09.09a10.42,10.42,0,0,1-1.36,1.53l.6-.17.94-.68c.17-.17.43-.34.51-.51l-.17-1L361,288C361.05,288,361.05,288,361.14,288.09Z"/>
<path class="cls-10" d="M377.67,277.86l-.17-.08-.09-.17a2.27,2.27,0,0,0-.94-.85l.09.17c.43.34.43.51.43.68v.09h-.26c-.26-.43-1.11-.68-2.13-.94h-.94c-.77.26-.77.08-1.11.34a1.59,1.59,0,0,0-.6.51,1.41,1.41,0,0,0-.68.85,2.38,2.38,0,0,0,0,1.88,4,4,0,0,0,.43,2c0,.34.26.6.26.85s0,.34.17.43v.51l.34.6.17.43.26.77.43.34c-.09.17.17.26.26.43-.09.26.43.6.43.85a12.22,12.22,0,0,0,.6,1.62l.26.85a2.46,2.46,0,0,0,.26.94c.17.17.34.26.17.6,0,.17.26.26.26.43a7.87,7.87,0,0,1,0,3.15,1,1,0,0,1,0,.85c.34.34-.26,1-.34,1.53a2.56,2.56,0,0,1-.77,1.45,5.23,5.23,0,0,1-2,1.79,2.35,2.35,0,0,1-.77.09c0,.08.08.08.17.26l-.85.26a4.59,4.59,0,0,1-1.87,0c-.68-.17-1.36-.17-1.79-.34-.17-.17-.85-.17-1.19-.68a6.9,6.9,0,0,1-1.79-1.7A9.46,9.46,0,0,1,363.1,297a4.36,4.36,0,0,1-.68-2.39v-.09a.17.17,0,0,1,.17-.17l.09-1.53a10,10,0,0,1,2.22-2,5.2,5.2,0,0,1,1.53-.77v.09a8.21,8.21,0,0,0-3.15,3.49h.17c.09,0,.17-.09.34-.26a3.48,3.48,0,0,0,.51-.94,5.86,5.86,0,0,1,1.45-1.53l.85-.6.08.77-1,1.11-.51,1.19a4.45,4.45,0,0,0,.26,2.81c.17.17.43.43.34.6,0,.77.51,1.11,1.19,1.79a2.67,2.67,0,0,0,1.62.34c1.62-.26,2.13-.51,2.81-1.45a4,4,0,0,0,.68-1.7,6.55,6.55,0,0,0,.08-2.22,5.66,5.66,0,0,0-.6-3l-1.19-3.07-.17-.26-.51-1-.34-.51-.17-.43-.09-.34a11.94,11.94,0,0,0-.85-2.3,1.66,1.66,0,0,1-.26-1.11l-.34-.68c0-.34-.08-1.36.26-1.7.08-.6-.09-1.36.34-1.87a8.86,8.86,0,0,0,1-1.45,3,3,0,0,1,1-.6l.77-.43a7.84,7.84,0,0,1,2.22-.43,3.37,3.37,0,0,1,2.39.6C377.75,276.33,377.67,277.52,377.67,277.86Zm-8,5.2c.09.09.09,0,.17,0-.09-.34-.09-.77-.17-1.36-.09,0-.09,0-.17.26A2.71,2.71,0,0,0,369.66,283.06Zm1.79,4.35c.17-.6-1.19-2.9-1.79-3.24C370.08,285.19,370.85,286.3,371.45,287.41Zm-.34-3.75.17.09.26-.43c-.17-.51-.43-.77-.6-1.19l-.09.17A7.67,7.67,0,0,1,371.11,283.66Zm.68,4.6a1.37,1.37,0,0,0-.26-.77C371.36,288,371.28,287.92,371.79,288.26Zm.09-3.75c-.43,0-.6.68-.26,1Zm1.19,2.9c0,.08.09.08.17.08a3.94,3.94,0,0,0-.85-1.19A1.25,1.25,0,0,0,373.07,287.41Zm3.15-10.91c.08,0,.26,0,.08-.09a3.62,3.62,0,0,0-1.28-.77c-.08,0-.08.09,0,.09C375.45,275.82,375.79,276.24,376.22,276.5Z"/>
</g>
</svg>